<?xml version="1.0" encoding="utf-8" standalone="no"?>
<!DOCTYPE svg PUBLIC "-//W3C//DTD SVG 1.1//EN"
  "http://www.w3.org/Graphics/SVG/1.1/DTD/svg11.dtd">
<svg xmlns:xlink="http://www.w3.org/1999/xlink" width="864pt" height="432pt" viewBox="0 0 864 432" xmlns="http://www.w3.org/2000/svg" version="1.1">
 <metadata>
  <rdf:RDF xmlns:dc="http://purl.org/dc/elements/1.1/" xmlns:cc="http://creativecommons.org/ns#" xmlns:rdf="http://www.w3.org/1999/02/22-rdf-syntax-ns#">
   <cc:Work>
    <dc:type rdf:resource="http://purl.org/dc/dcmitype/StillImage"/>
    <dc:date>2025-12-05T09:03:09.586417</dc:date>
    <dc:format>image/svg+xml</dc:format>
    <dc:creator>
     <cc:Agent>
      <dc:title>Matplotlib v3.7.1, https://matplotlib.org/</dc:title>
     </cc:Agent>
    </dc:creator>
   </cc:Work>
  </rdf:RDF>
 </metadata>
 <defs>
  <style type="text/css">*{stroke-linejoin: round; stroke-linecap: butt}</style>
 </defs>
 <g id="figure_1">
  <g id="patch_1">
   <path d="M 0 432 
L 864 432 
L 864 0 
L 0 0 
z
" style="fill: #ffffff"/>
  </g>
  <g id="axes_1">
   <g id="patch_2">
    <path d="M 52.9325 390.04 
L 810.1 390.04 
L 810.1 14.76 
L 52.9325 14.76 
z
" style="fill: #ffffff"/>
   </g>
   <g id="PolyCollection_1">
    <path d="M 225.27335 -5.416344 
L 225.27335 478.815914 
L 714.197967 478.815914 
L 714.197967 -5.416344 
L 714.197967 -5.416344 
L 225.27335 -5.416344 
z
" clip-path="url(#pf79b79df8e)" style="fill: #f5deb3; stroke: #f5deb3"/>
   </g>
   <g id="PolyCollection_2">
    <defs>
     <path id="mbef11d66ce" d="M 225.27335 -276.005591 
L 225.27335 46.815914 
L 676.467458 46.815914 
L 676.467458 -276.005591 
L 676.467458 -276.005591 
L 225.27335 -276.005591 
z
" style="stroke: #98fb98"/>
    </defs>
    <g clip-path="url(#pf79b79df8e)">
     <use xlink:href="#mbef11d66ce" x="0" y="432" style="fill: #98fb98; stroke: #98fb98"/>
    </g>
   </g>
   <g id="PolyCollection_3">
    <defs>
     <path id="mc2ba722d9d" d="M 469.625343 -195.300215 
L 469.625343 46.815914 
L 594.9842 46.815914 
L 594.9842 -195.300215 
L 594.9842 -195.300215 
L 469.625343 -195.300215 
z
" style="stroke: #ffff00"/>
    </defs>
    <g clip-path="url(#pf79b79df8e)">
     <use xlink:href="#mc2ba722d9d" x="0" y="432" style="fill: #ffff00; stroke: #ffff00"/>
    </g>
   </g>
   <g id="matplotlib.axis_1">
    <g id="xtick_1">
     <g id="line2d_1">
      <path d="M 103.076043 390.04 
L 103.076043 14.76 
" clip-path="url(#pf79b79df8e)" style="fill: none; stroke: #b0b0b0; stroke-width: 0.8; stroke-linecap: square"/>
     </g>
     <g id="line2d_2">
      <defs>
       <path id="mf5bd75c56f" d="M 0 0 
L 0 3.5 
" style="stroke: #000000; stroke-width: 0.8"/>
      </defs>
      <g>
       <use xlink:href="#mf5bd75c56f" x="103.076043" y="390.04" style="stroke: #000000; stroke-width: 0.8"/>
      </g>
     </g>
     <g id="text_1">
      <!-- 2000 -->
      <g transform="translate(90.351043 404.638438) scale(0.1 -0.1)">
       <defs>
        <path id="DejaVuSans-32" d="M 1228 531 
L 3431 531 
L 3431 0 
L 469 0 
L 469 531 
Q 828 903 1448 1529 
Q 2069 2156 2228 2338 
Q 2531 2678 2651 2914 
Q 2772 3150 2772 3378 
Q 2772 3750 2511 3984 
Q 2250 4219 1831 4219 
Q 1534 4219 1204 4116 
Q 875 4013 500 3803 
L 500 4441 
Q 881 4594 1212 4672 
Q 1544 4750 1819 4750 
Q 2544 4750 2975 4387 
Q 3406 4025 3406 3419 
Q 3406 3131 3298 2873 
Q 3191 2616 2906 2266 
Q 2828 2175 2409 1742 
Q 1991 1309 1228 531 
z
" transform="scale(0.015625)"/>
        <path id="DejaVuSans-30" d="M 2034 4250 
Q 1547 4250 1301 3770 
Q 1056 3291 1056 2328 
Q 1056 1369 1301 889 
Q 1547 409 2034 409 
Q 2525 409 2770 889 
Q 3016 1369 3016 2328 
Q 3016 3291 2770 3770 
Q 2525 4250 2034 4250 
z
M 2034 4750 
Q 2819 4750 3233 4129 
Q 3647 3509 3647 2328 
Q 3647 1150 3233 529 
Q 2819 -91 2034 -91 
Q 1250 -91 836 529 
Q 422 1150 422 2328 
Q 422 3509 836 4129 
Q 1250 4750 2034 4750 
z
" transform="scale(0.015625)"/>
       </defs>
       <use xlink:href="#DejaVuSans-32"/>
       <use xlink:href="#DejaVuSans-30" x="63.623047"/>
       <use xlink:href="#DejaVuSans-30" x="127.246094"/>
       <use xlink:href="#DejaVuSans-30" x="190.869141"/>
      </g>
     </g>
    </g>
    <g id="xtick_2">
     <g id="line2d_3">
      <path d="M 228.434901 390.04 
L 228.434901 14.76 
" clip-path="url(#pf79b79df8e)" style="fill: none; stroke: #b0b0b0; stroke-width: 0.8; stroke-linecap: square"/>
     </g>
     <g id="line2d_4">
      <g>
       <use xlink:href="#mf5bd75c56f" x="228.434901" y="390.04" style="stroke: #000000; stroke-width: 0.8"/>
      </g>
     </g>
     <g id="text_2">
      <!-- 2005 -->
      <g transform="translate(215.709901 404.638438) scale(0.1 -0.1)">
       <defs>
        <path id="DejaVuSans-35" d="M 691 4666 
L 3169 4666 
L 3169 4134 
L 1269 4134 
L 1269 2991 
Q 1406 3038 1543 3061 
Q 1681 3084 1819 3084 
Q 2600 3084 3056 2656 
Q 3513 2228 3513 1497 
Q 3513 744 3044 326 
Q 2575 -91 1722 -91 
Q 1428 -91 1123 -41 
Q 819 9 494 109 
L 494 744 
Q 775 591 1075 516 
Q 1375 441 1709 441 
Q 2250 441 2565 725 
Q 2881 1009 2881 1497 
Q 2881 1984 2565 2268 
Q 2250 2553 1709 2553 
Q 1456 2553 1204 2497 
Q 953 2441 691 2322 
L 691 4666 
z
" transform="scale(0.015625)"/>
       </defs>
       <use xlink:href="#DejaVuSans-32"/>
       <use xlink:href="#DejaVuSans-30" x="63.623047"/>
       <use xlink:href="#DejaVuSans-30" x="127.246094"/>
       <use xlink:href="#DejaVuSans-35" x="190.869141"/>
      </g>
     </g>
    </g>
    <g id="xtick_3">
     <g id="line2d_5">
      <path d="M 353.793758 390.04 
L 353.793758 14.76 
" clip-path="url(#pf79b79df8e)" style="fill: none; stroke: #b0b0b0; stroke-width: 0.8; stroke-linecap: square"/>
     </g>
     <g id="line2d_6">
      <g>
       <use xlink:href="#mf5bd75c56f" x="353.793758" y="390.04" style="stroke: #000000; stroke-width: 0.8"/>
      </g>
     </g>
     <g id="text_3">
      <!-- 2010 -->
      <g transform="translate(341.068758 404.638438) scale(0.1 -0.1)">
       <defs>
        <path id="DejaVuSans-31" d="M 794 531 
L 1825 531 
L 1825 4091 
L 703 3866 
L 703 4441 
L 1819 4666 
L 2450 4666 
L 2450 531 
L 3481 531 
L 3481 0 
L 794 0 
L 794 531 
z
" transform="scale(0.015625)"/>
       </defs>
       <use xlink:href="#DejaVuSans-32"/>
       <use xlink:href="#DejaVuSans-30" x="63.623047"/>
       <use xlink:href="#DejaVuSans-31" x="127.246094"/>
       <use xlink:href="#DejaVuSans-30" x="190.869141"/>
      </g>
     </g>
    </g>
    <g id="xtick_4">
     <g id="line2d_7">
      <path d="M 479.152616 390.04 
L 479.152616 14.76 
" clip-path="url(#pf79b79df8e)" style="fill: none; stroke: #b0b0b0; stroke-width: 0.8; stroke-linecap: square"/>
     </g>
     <g id="line2d_8">
      <g>
       <use xlink:href="#mf5bd75c56f" x="479.152616" y="390.04" style="stroke: #000000; stroke-width: 0.8"/>
      </g>
     </g>
     <g id="text_4">
      <!-- 2015 -->
      <g transform="translate(466.427616 404.638438) scale(0.1 -0.1)">
       <use xlink:href="#DejaVuSans-32"/>
       <use xlink:href="#DejaVuSans-30" x="63.623047"/>
       <use xlink:href="#DejaVuSans-31" x="127.246094"/>
       <use xlink:href="#DejaVuSans-35" x="190.869141"/>
      </g>
     </g>
    </g>
    <g id="xtick_5">
     <g id="line2d_9">
      <path d="M 604.511474 390.04 
L 604.511474 14.76 
" clip-path="url(#pf79b79df8e)" style="fill: none; stroke: #b0b0b0; stroke-width: 0.8; stroke-linecap: square"/>
     </g>
     <g id="line2d_10">
      <g>
       <use xlink:href="#mf5bd75c56f" x="604.511474" y="390.04" style="stroke: #000000; stroke-width: 0.8"/>
      </g>
     </g>
     <g id="text_5">
      <!-- 2020 -->
      <g transform="translate(591.786474 404.638438) scale(0.1 -0.1)">
       <use xlink:href="#DejaVuSans-32"/>
       <use xlink:href="#DejaVuSans-30" x="63.623047"/>
       <use xlink:href="#DejaVuSans-32" x="127.246094"/>
       <use xlink:href="#DejaVuSans-30" x="190.869141"/>
      </g>
     </g>
    </g>
    <g id="xtick_6">
     <g id="line2d_11">
      <path d="M 729.870331 390.04 
L 729.870331 14.76 
" clip-path="url(#pf79b79df8e)" style="fill: none; stroke: #b0b0b0; stroke-width: 0.8; stroke-linecap: square"/>
     </g>
     <g id="line2d_12">
      <g>
       <use xlink:href="#mf5bd75c56f" x="729.870331" y="390.04" style="stroke: #000000; stroke-width: 0.8"/>
      </g>
     </g>
     <g id="text_6">
      <!-- 2025 -->
      <g transform="translate(717.145331 404.638438) scale(0.1 -0.1)">
       <use xlink:href="#DejaVuSans-32"/>
       <use xlink:href="#DejaVuSans-30" x="63.623047"/>
       <use xlink:href="#DejaVuSans-32" x="127.246094"/>
       <use xlink:href="#DejaVuSans-35" x="190.869141"/>
      </g>
     </g>
    </g>
    <g id="text_7">
     <!-- Date [year] -->
     <g transform="translate(402.919375 418.316562) scale(0.1 -0.1)">
      <defs>
       <path id="DejaVuSans-44" d="M 1259 4147 
L 1259 519 
L 2022 519 
Q 2988 519 3436 956 
Q 3884 1394 3884 2338 
Q 3884 3275 3436 3711 
Q 2988 4147 2022 4147 
L 1259 4147 
z
M 628 4666 
L 1925 4666 
Q 3281 4666 3915 4102 
Q 4550 3538 4550 2338 
Q 4550 1131 3912 565 
Q 3275 0 1925 0 
L 628 0 
L 628 4666 
z
" transform="scale(0.015625)"/>
       <path id="DejaVuSans-61" d="M 2194 1759 
Q 1497 1759 1228 1600 
Q 959 1441 959 1056 
Q 959 750 1161 570 
Q 1363 391 1709 391 
Q 2188 391 2477 730 
Q 2766 1069 2766 1631 
L 2766 1759 
L 2194 1759 
z
M 3341 1997 
L 3341 0 
L 2766 0 
L 2766 531 
Q 2569 213 2275 61 
Q 1981 -91 1556 -91 
Q 1019 -91 701 211 
Q 384 513 384 1019 
Q 384 1609 779 1909 
Q 1175 2209 1959 2209 
L 2766 2209 
L 2766 2266 
Q 2766 2663 2505 2880 
Q 2244 3097 1772 3097 
Q 1472 3097 1187 3025 
Q 903 2953 641 2809 
L 641 3341 
Q 956 3463 1253 3523 
Q 1550 3584 1831 3584 
Q 2591 3584 2966 3190 
Q 3341 2797 3341 1997 
z
" transform="scale(0.015625)"/>
       <path id="DejaVuSans-74" d="M 1172 4494 
L 1172 3500 
L 2356 3500 
L 2356 3053 
L 1172 3053 
L 1172 1153 
Q 1172 725 1289 603 
Q 1406 481 1766 481 
L 2356 481 
L 2356 0 
L 1766 0 
Q 1100 0 847 248 
Q 594 497 594 1153 
L 594 3053 
L 172 3053 
L 172 3500 
L 594 3500 
L 594 4494 
L 1172 4494 
z
" transform="scale(0.015625)"/>
       <path id="DejaVuSans-65" d="M 3597 1894 
L 3597 1613 
L 953 1613 
Q 991 1019 1311 708 
Q 1631 397 2203 397 
Q 2534 397 2845 478 
Q 3156 559 3463 722 
L 3463 178 
Q 3153 47 2828 -22 
Q 2503 -91 2169 -91 
Q 1331 -91 842 396 
Q 353 884 353 1716 
Q 353 2575 817 3079 
Q 1281 3584 2069 3584 
Q 2775 3584 3186 3129 
Q 3597 2675 3597 1894 
z
M 3022 2063 
Q 3016 2534 2758 2815 
Q 2500 3097 2075 3097 
Q 1594 3097 1305 2825 
Q 1016 2553 972 2059 
L 3022 2063 
z
" transform="scale(0.015625)"/>
       <path id="DejaVuSans-20" transform="scale(0.015625)"/>
       <path id="DejaVuSans-5b" d="M 550 4863 
L 1875 4863 
L 1875 4416 
L 1125 4416 
L 1125 -397 
L 1875 -397 
L 1875 -844 
L 550 -844 
L 550 4863 
z
" transform="scale(0.015625)"/>
       <path id="DejaVuSans-79" d="M 2059 -325 
Q 1816 -950 1584 -1140 
Q 1353 -1331 966 -1331 
L 506 -1331 
L 506 -850 
L 844 -850 
Q 1081 -850 1212 -737 
Q 1344 -625 1503 -206 
L 1606 56 
L 191 3500 
L 800 3500 
L 1894 763 
L 2988 3500 
L 3597 3500 
L 2059 -325 
z
" transform="scale(0.015625)"/>
       <path id="DejaVuSans-72" d="M 2631 2963 
Q 2534 3019 2420 3045 
Q 2306 3072 2169 3072 
Q 1681 3072 1420 2755 
Q 1159 2438 1159 1844 
L 1159 0 
L 581 0 
L 581 3500 
L 1159 3500 
L 1159 2956 
Q 1341 3275 1631 3429 
Q 1922 3584 2338 3584 
Q 2397 3584 2469 3576 
Q 2541 3569 2628 3553 
L 2631 2963 
z
" transform="scale(0.015625)"/>
       <path id="DejaVuSans-5d" d="M 1947 4863 
L 1947 -844 
L 622 -844 
L 622 -397 
L 1369 -397 
L 1369 4416 
L 622 4416 
L 622 4863 
L 1947 4863 
z
" transform="scale(0.015625)"/>
      </defs>
      <use xlink:href="#DejaVuSans-44"/>
      <use xlink:href="#DejaVuSans-61" x="77.001953"/>
      <use xlink:href="#DejaVuSans-74" x="138.28125"/>
      <use xlink:href="#DejaVuSans-65" x="177.490234"/>
      <use xlink:href="#DejaVuSans-20" x="239.013672"/>
      <use xlink:href="#DejaVuSans-5b" x="270.800781"/>
      <use xlink:href="#DejaVuSans-79" x="309.814453"/>
      <use xlink:href="#DejaVuSans-65" x="368.994141"/>
      <use xlink:href="#DejaVuSans-61" x="430.517578"/>
      <use xlink:href="#DejaVuSans-72" x="491.796875"/>
      <use xlink:href="#DejaVuSans-5d" x="532.910156"/>
     </g>
    </g>
   </g>
   <g id="matplotlib.axis_2">
    <g id="ytick_1">
     <g id="line2d_13">
      <path d="M 52.9325 317.405161 
L 810.1 317.405161 
" clip-path="url(#pf79b79df8e)" style="fill: none; stroke: #b0b0b0; stroke-width: 0.8; stroke-linecap: square"/>
     </g>
     <g id="line2d_14">
      <defs>
       <path id="mb4d4360cd4" d="M 0 0 
L -3.5 0 
" style="stroke: #000000; stroke-width: 0.8"/>
      </defs>
      <g>
       <use xlink:href="#mb4d4360cd4" x="52.9325" y="317.405161" style="stroke: #000000; stroke-width: 0.8"/>
      </g>
     </g>
     <g id="text_8">
      <!-- 0.4 -->
      <g transform="translate(30.029375 321.20438) scale(0.1 -0.1)">
       <defs>
        <path id="DejaVuSans-2e" d="M 684 794 
L 1344 794 
L 1344 0 
L 684 0 
L 684 794 
z
" transform="scale(0.015625)"/>
        <path id="DejaVuSans-34" d="M 2419 4116 
L 825 1625 
L 2419 1625 
L 2419 4116 
z
M 2253 4666 
L 3047 4666 
L 3047 1625 
L 3713 1625 
L 3713 1100 
L 3047 1100 
L 3047 0 
L 2419 0 
L 2419 1100 
L 313 1100 
L 313 1709 
L 2253 4666 
z
" transform="scale(0.015625)"/>
       </defs>
       <use xlink:href="#DejaVuSans-30"/>
       <use xlink:href="#DejaVuSans-2e" x="63.623047"/>
       <use xlink:href="#DejaVuSans-34" x="95.410156"/>
      </g>
     </g>
    </g>
    <g id="ytick_2">
     <g id="line2d_15">
      <path d="M 52.9325 236.699785 
L 810.1 236.699785 
" clip-path="url(#pf79b79df8e)" style="fill: none; stroke: #b0b0b0; stroke-width: 0.8; stroke-linecap: square"/>
     </g>
     <g id="line2d_16">
      <g>
       <use xlink:href="#mb4d4360cd4" x="52.9325" y="236.699785" style="stroke: #000000; stroke-width: 0.8"/>
      </g>
     </g>
     <g id="text_9">
      <!-- 0.6 -->
      <g transform="translate(30.029375 240.499004) scale(0.1 -0.1)">
       <defs>
        <path id="DejaVuSans-36" d="M 2113 2584 
Q 1688 2584 1439 2293 
Q 1191 2003 1191 1497 
Q 1191 994 1439 701 
Q 1688 409 2113 409 
Q 2538 409 2786 701 
Q 3034 994 3034 1497 
Q 3034 2003 2786 2293 
Q 2538 2584 2113 2584 
z
M 3366 4563 
L 3366 3988 
Q 3128 4100 2886 4159 
Q 2644 4219 2406 4219 
Q 1781 4219 1451 3797 
Q 1122 3375 1075 2522 
Q 1259 2794 1537 2939 
Q 1816 3084 2150 3084 
Q 2853 3084 3261 2657 
Q 3669 2231 3669 1497 
Q 3669 778 3244 343 
Q 2819 -91 2113 -91 
Q 1303 -91 875 529 
Q 447 1150 447 2328 
Q 447 3434 972 4092 
Q 1497 4750 2381 4750 
Q 2619 4750 2861 4703 
Q 3103 4656 3366 4563 
z
" transform="scale(0.015625)"/>
       </defs>
       <use xlink:href="#DejaVuSans-30"/>
       <use xlink:href="#DejaVuSans-2e" x="63.623047"/>
       <use xlink:href="#DejaVuSans-36" x="95.410156"/>
      </g>
     </g>
    </g>
    <g id="ytick_3">
     <g id="line2d_17">
      <path d="M 52.9325 155.994409 
L 810.1 155.994409 
" clip-path="url(#pf79b79df8e)" style="fill: none; stroke: #b0b0b0; stroke-width: 0.8; stroke-linecap: square"/>
     </g>
     <g id="line2d_18">
      <g>
       <use xlink:href="#mb4d4360cd4" x="52.9325" y="155.994409" style="stroke: #000000; stroke-width: 0.8"/>
      </g>
     </g>
     <g id="text_10">
      <!-- 0.8 -->
      <g transform="translate(30.029375 159.793627) scale(0.1 -0.1)">
       <defs>
        <path id="DejaVuSans-38" d="M 2034 2216 
Q 1584 2216 1326 1975 
Q 1069 1734 1069 1313 
Q 1069 891 1326 650 
Q 1584 409 2034 409 
Q 2484 409 2743 651 
Q 3003 894 3003 1313 
Q 3003 1734 2745 1975 
Q 2488 2216 2034 2216 
z
M 1403 2484 
Q 997 2584 770 2862 
Q 544 3141 544 3541 
Q 544 4100 942 4425 
Q 1341 4750 2034 4750 
Q 2731 4750 3128 4425 
Q 3525 4100 3525 3541 
Q 3525 3141 3298 2862 
Q 3072 2584 2669 2484 
Q 3125 2378 3379 2068 
Q 3634 1759 3634 1313 
Q 3634 634 3220 271 
Q 2806 -91 2034 -91 
Q 1263 -91 848 271 
Q 434 634 434 1313 
Q 434 1759 690 2068 
Q 947 2378 1403 2484 
z
M 1172 3481 
Q 1172 3119 1398 2916 
Q 1625 2713 2034 2713 
Q 2441 2713 2670 2916 
Q 2900 3119 2900 3481 
Q 2900 3844 2670 4047 
Q 2441 4250 2034 4250 
Q 1625 4250 1398 4047 
Q 1172 3844 1172 3481 
z
" transform="scale(0.015625)"/>
       </defs>
       <use xlink:href="#DejaVuSans-30"/>
       <use xlink:href="#DejaVuSans-2e" x="63.623047"/>
       <use xlink:href="#DejaVuSans-38" x="95.410156"/>
      </g>
     </g>
    </g>
    <g id="ytick_4">
     <g id="line2d_19">
      <path d="M 52.9325 75.289032 
L 810.1 75.289032 
" clip-path="url(#pf79b79df8e)" style="fill: none; stroke: #b0b0b0; stroke-width: 0.8; stroke-linecap: square"/>
     </g>
     <g id="line2d_20">
      <g>
       <use xlink:href="#mb4d4360cd4" x="52.9325" y="75.289032" style="stroke: #000000; stroke-width: 0.8"/>
      </g>
     </g>
     <g id="text_11">
      <!-- 1.0 -->
      <g transform="translate(30.029375 79.088251) scale(0.1 -0.1)">
       <use xlink:href="#DejaVuSans-31"/>
       <use xlink:href="#DejaVuSans-2e" x="63.623047"/>
       <use xlink:href="#DejaVuSans-30" x="95.410156"/>
      </g>
     </g>
    </g>
    <g id="text_12">
     <!-- $\sqrt{ \mathrm{tr} \mathbf{C} (t)}$  [nT] -->
     <g transform="translate(23.949688 233.95) rotate(-90) scale(0.1 -0.1)">
      <defs>
       <path id="STIXSizeOneSym-Regular-221a" d="M 6970 9933 
L 3373 -1888 
L 3104 -1888 
L 1626 2918 
Q 1555 3149 1465 3251 
Q 1376 3354 1229 3354 
Q 1011 3354 794 3181 
L 717 3309 
L 1766 4115 
L 1926 4115 
L 3379 -602 
L 3405 -602 
L 6605 9933 
L 6970 9933 
z
" transform="scale(0.015625)"/>
       <path id="DejaVuSans-Bold-43" d="M 4288 256 
Q 3956 84 3597 -3 
Q 3238 -91 2847 -91 
Q 1681 -91 1000 561 
Q 319 1213 319 2328 
Q 319 3447 1000 4098 
Q 1681 4750 2847 4750 
Q 3238 4750 3597 4662 
Q 3956 4575 4288 4403 
L 4288 3438 
Q 3953 3666 3628 3772 
Q 3303 3878 2944 3878 
Q 2300 3878 1931 3465 
Q 1563 3053 1563 2328 
Q 1563 1606 1931 1193 
Q 2300 781 2944 781 
Q 3303 781 3628 887 
Q 3953 994 4288 1222 
L 4288 256 
z
" transform="scale(0.015625)"/>
       <path id="DejaVuSans-28" d="M 1984 4856 
Q 1566 4138 1362 3434 
Q 1159 2731 1159 2009 
Q 1159 1288 1364 580 
Q 1569 -128 1984 -844 
L 1484 -844 
Q 1016 -109 783 600 
Q 550 1309 550 2009 
Q 550 2706 781 3412 
Q 1013 4119 1484 4856 
L 1984 4856 
z
" transform="scale(0.015625)"/>
       <path id="DejaVuSans-Oblique-74" d="M 2706 3500 
L 2619 3053 
L 1472 3053 
L 1100 1153 
Q 1081 1047 1072 975 
Q 1063 903 1063 863 
Q 1063 663 1183 572 
Q 1303 481 1569 481 
L 2150 481 
L 2053 0 
L 1503 0 
Q 991 0 739 200 
Q 488 400 488 806 
Q 488 878 497 964 
Q 506 1050 525 1153 
L 897 3053 
L 409 3053 
L 500 3500 
L 978 3500 
L 1172 4494 
L 1747 4494 
L 1556 3500 
L 2706 3500 
z
" transform="scale(0.015625)"/>
       <path id="DejaVuSans-29" d="M 513 4856 
L 1013 4856 
Q 1481 4119 1714 3412 
Q 1947 2706 1947 2009 
Q 1947 1309 1714 600 
Q 1481 -109 1013 -844 
L 513 -844 
Q 928 -128 1133 580 
Q 1338 1288 1338 2009 
Q 1338 2731 1133 3434 
Q 928 4138 513 4856 
z
" transform="scale(0.015625)"/>
       <path id="DejaVuSans-6e" d="M 3513 2113 
L 3513 0 
L 2938 0 
L 2938 2094 
Q 2938 2591 2744 2837 
Q 2550 3084 2163 3084 
Q 1697 3084 1428 2787 
Q 1159 2491 1159 1978 
L 1159 0 
L 581 0 
L 581 3500 
L 1159 3500 
L 1159 2956 
Q 1366 3272 1645 3428 
Q 1925 3584 2291 3584 
Q 2894 3584 3203 3211 
Q 3513 2838 3513 2113 
z
" transform="scale(0.015625)"/>
       <path id="DejaVuSans-54" d="M -19 4666 
L 3928 4666 
L 3928 4134 
L 2272 4134 
L 2272 0 
L 1638 0 
L 1638 4134 
L -19 4134 
L -19 4666 
z
" transform="scale(0.015625)"/>
      </defs>
      <use xlink:href="#STIXSizeOneSym-Regular-221a" transform="translate(0 6.921875) scale(0.651383)"/>
      <use xlink:href="#DejaVuSans-74" transform="translate(81.337112 0.875)"/>
      <use xlink:href="#DejaVuSans-72" transform="translate(120.546097 0.875)"/>
      <use xlink:href="#DejaVuSans-Bold-43" transform="translate(161.659378 0.875)"/>
      <use xlink:href="#DejaVuSans-28" transform="translate(235.04805 0.875)"/>
      <use xlink:href="#DejaVuSans-Oblique-74" transform="translate(274.061722 0.875)"/>
      <use xlink:href="#DejaVuSans-29" transform="translate(313.270706 0.875)"/>
      <use xlink:href="#DejaVuSans-20" transform="translate(364.784378 0.890625)"/>
      <use xlink:href="#DejaVuSans-20" transform="translate(396.571487 0.890625)"/>
      <use xlink:href="#DejaVuSans-5b" transform="translate(428.358597 0.890625)"/>
      <use xlink:href="#DejaVuSans-6e" transform="translate(467.372269 0.890625)"/>
      <use xlink:href="#DejaVuSans-54" transform="translate(530.751175 0.890625)"/>
      <use xlink:href="#DejaVuSans-5d" transform="translate(591.835159 0.890625)"/>
      <path d="M 68.837112 101.5 
L 68.837112 107.75 
L 364.784378 107.75 
L 364.784378 101.5 
L 68.837112 101.5 
z
"/>
     </g>
    </g>
   </g>
   <g id="LineCollection_1">
    <path d="M 225.27335 433 
L 225.27335 -1 
" clip-path="url(#pf79b79df8e)" style="fill: none; stroke-dasharray: 5.55,2.4; stroke-dashoffset: 0; stroke: #0000ff; stroke-width: 1.5"/>
   </g>
   <g id="LineCollection_2">
    <path d="M 714.197967 433 
L 714.197967 -1 
" clip-path="url(#pf79b79df8e)" style="fill: none; stroke-dasharray: 5.55,2.4; stroke-dashoffset: 0; stroke: #0000ff; stroke-width: 1.5"/>
   </g>
   <g id="LineCollection_3">
    <path d="M 676.467458 433 
L 676.467458 115.64172 
" clip-path="url(#pf79b79df8e)" style="fill: none; stroke-dasharray: 5.55,2.4; stroke-dashoffset: 0; stroke: #006400; stroke-width: 1.5"/>
   </g>
   <g id="LineCollection_4">
    <path d="M 469.625343 433 
L 469.625343 196.347097 
" clip-path="url(#pf79b79df8e)" style="fill: none; stroke-dasharray: 5.55,2.4; stroke-dashoffset: 0; stroke: #ffa500; stroke-width: 1.5"/>
   </g>
   <g id="LineCollection_5">
    <path d="M 594.9842 433 
L 594.9842 196.347097 
" clip-path="url(#pf79b79df8e)" style="fill: none; stroke-dasharray: 5.55,2.4; stroke-dashoffset: 0; stroke: #ffa500; stroke-width: 1.5"/>
   </g>
   <g id="line2d_21">
    <path d="M 81.138243 198.941644 
L 87.406186 256.305771 
L 93.674129 287.418665 
L 99.967143 299.648971 
L 106.210014 302.336647 
L 112.477957 304.011042 
L 118.720828 308.682218 
L 124.988771 316.423895 
L 131.256714 323.158929 
L 137.524657 327.877594 
L 143.7926 330.724461 
L 150.060543 332.25951 
L 156.328486 333.06958 
L 162.6215 333.40178 
L 168.889443 333.528518 
L 175.157386 333.716984 
L 181.425329 334.024174 
L 187.693272 334.224101 
L 193.961215 334.345812 
L 200.254229 334.335838 
L 206.497101 334.237201 
L 212.765043 334.21087 
L 219.007915 334.386219 
L 225.275857 334.402192 
L 231.5438 334.418427 
L 237.811743 334.502881 
L 244.079686 334.518771 
L 250.347629 334.522895 
L 256.615572 334.621311 
L 262.908587 334.681375 
L 269.176529 334.596157 
L 275.444472 334.552665 
L 281.712415 334.746646 
L 287.980358 334.794481 
L 294.248301 334.83374 
L 300.541316 334.939491 
L 306.784187 334.961656 
L 313.05213 334.929375 
L 319.295001 334.94222 
L 325.562944 334.949426 
L 331.830886 334.818623 
L 338.098829 334.695645 
L 344.366772 334.699266 
L 350.634715 334.508367 
L 356.902658 334.145154 
L 363.195673 333.624248 
L 369.463615 332.776272 
L 375.731558 331.672821 
L 381.999501 331.348017 
L 388.267444 330.783055 
L 394.535387 329.899489 
L 400.828402 328.863399 
L 407.071273 327.747222 
L 413.339216 328.52794 
L 419.582087 329.509604 
L 425.85003 330.241171 
L 432.117973 331.20557 
L 438.385915 331.788361 
L 444.653858 332.295407 
L 450.921801 332.910048 
L 457.189744 333.250895 
L 463.482759 333.509926 
L 469.750702 333.507854 
L 476.018644 333.461902 
L 482.286587 333.555176 
L 488.55453 333.518508 
L 494.822473 333.459565 
L 501.115488 333.533356 
L 507.358359 333.574155 
L 513.626302 333.586549 
L 519.869173 333.669363 
L 526.137116 333.66886 
L 532.405059 333.644088 
L 538.673001 333.691282 
L 544.940944 333.717951 
L 551.208887 333.67794 
L 557.47683 333.710779 
L 563.769845 333.747348 
L 570.037788 333.679026 
L 576.305731 333.619989 
L 582.573673 333.606119 
L 588.841616 333.474844 
L 595.109559 333.407089 
L 601.402574 333.503695 
L 607.645445 333.426879 
L 613.913388 333.36811 
L 620.156259 333.439487 
L 626.424202 333.342491 
L 632.692145 333.239186 
L 638.960088 333.229637 
L 645.22803 333.118775 
L 651.495973 332.939274 
L 657.763916 332.767597 
L 664.056931 332.439865 
L 670.324874 331.928212 
L 676.592817 331.362745 
L 682.86076 330.695479 
L 689.128702 329.544246 
L 695.396645 327.279353 
L 701.68966 321.693781 
L 707.932531 307.805538 
L 714.200474 278.433289 
L 720.443345 225.923564 
L 726.711288 146.171032 
L 732.979231 45.421533 
" clip-path="url(#pf79b79df8e)" style="fill: none; stroke: #000000; stroke-width: 1.5; stroke-linecap: square"/>
    <defs>
     <path id="m57ad25da9c" d="M 0 3 
C 0.795609 3 1.55874 2.683901 2.12132 2.12132 
C 2.683901 1.55874 3 0.795609 3 0 
C 3 -0.795609 2.683901 -1.55874 2.12132 -2.12132 
C 1.55874 -2.683901 0.795609 -3 0 -3 
C -0.795609 -3 -1.55874 -2.683901 -2.12132 -2.12132 
C -2.683901 -1.55874 -3 -0.795609 -3 0 
C -3 0.795609 -2.683901 1.55874 -2.12132 2.12132 
C -1.55874 2.683901 -0.795609 3 0 3 
z
" style="stroke: #000000"/>
    </defs>
    <g clip-path="url(#pf79b79df8e)">
     <use xlink:href="#m57ad25da9c" x="81.138243" y="198.941644" style="stroke: #000000"/>
     <use xlink:href="#m57ad25da9c" x="87.406186" y="256.305771" style="stroke: #000000"/>
     <use xlink:href="#m57ad25da9c" x="93.674129" y="287.418665" style="stroke: #000000"/>
     <use xlink:href="#m57ad25da9c" x="99.967143" y="299.648971" style="stroke: #000000"/>
     <use xlink:href="#m57ad25da9c" x="106.210014" y="302.336647" style="stroke: #000000"/>
     <use xlink:href="#m57ad25da9c" x="112.477957" y="304.011042" style="stroke: #000000"/>
     <use xlink:href="#m57ad25da9c" x="118.720828" y="308.682218" style="stroke: #000000"/>
     <use xlink:href="#m57ad25da9c" x="124.988771" y="316.423895" style="stroke: #000000"/>
     <use xlink:href="#m57ad25da9c" x="131.256714" y="323.158929" style="stroke: #000000"/>
     <use xlink:href="#m57ad25da9c" x="137.524657" y="327.877594" style="stroke: #000000"/>
     <use xlink:href="#m57ad25da9c" x="143.7926" y="330.724461" style="stroke: #000000"/>
     <use xlink:href="#m57ad25da9c" x="150.060543" y="332.25951" style="stroke: #000000"/>
     <use xlink:href="#m57ad25da9c" x="156.328486" y="333.06958" style="stroke: #000000"/>
     <use xlink:href="#m57ad25da9c" x="162.6215" y="333.40178" style="stroke: #000000"/>
     <use xlink:href="#m57ad25da9c" x="168.889443" y="333.528518" style="stroke: #000000"/>
     <use xlink:href="#m57ad25da9c" x="175.157386" y="333.716984" style="stroke: #000000"/>
     <use xlink:href="#m57ad25da9c" x="181.425329" y="334.024174" style="stroke: #000000"/>
     <use xlink:href="#m57ad25da9c" x="187.693272" y="334.224101" style="stroke: #000000"/>
     <use xlink:href="#m57ad25da9c" x="193.961215" y="334.345812" style="stroke: #000000"/>
     <use xlink:href="#m57ad25da9c" x="200.254229" y="334.335838" style="stroke: #000000"/>
     <use xlink:href="#m57ad25da9c" x="206.497101" y="334.237201" style="stroke: #000000"/>
     <use xlink:href="#m57ad25da9c" x="212.765043" y="334.21087" style="stroke: #000000"/>
     <use xlink:href="#m57ad25da9c" x="219.007915" y="334.386219" style="stroke: #000000"/>
     <use xlink:href="#m57ad25da9c" x="225.275857" y="334.402192" style="stroke: #000000"/>
     <use xlink:href="#m57ad25da9c" x="231.5438" y="334.418427" style="stroke: #000000"/>
     <use xlink:href="#m57ad25da9c" x="237.811743" y="334.502881" style="stroke: #000000"/>
     <use xlink:href="#m57ad25da9c" x="244.079686" y="334.518771" style="stroke: #000000"/>
     <use xlink:href="#m57ad25da9c" x="250.347629" y="334.522895" style="stroke: #000000"/>
     <use xlink:href="#m57ad25da9c" x="256.615572" y="334.621311" style="stroke: #000000"/>
     <use xlink:href="#m57ad25da9c" x="262.908587" y="334.681375" style="stroke: #000000"/>
     <use xlink:href="#m57ad25da9c" x="269.176529" y="334.596157" style="stroke: #000000"/>
     <use xlink:href="#m57ad25da9c" x="275.444472" y="334.552665" style="stroke: #000000"/>
     <use xlink:href="#m57ad25da9c" x="281.712415" y="334.746646" style="stroke: #000000"/>
     <use xlink:href="#m57ad25da9c" x="287.980358" y="334.794481" style="stroke: #000000"/>
     <use xlink:href="#m57ad25da9c" x="294.248301" y="334.83374" style="stroke: #000000"/>
     <use xlink:href="#m57ad25da9c" x="300.541316" y="334.939491" style="stroke: #000000"/>
     <use xlink:href="#m57ad25da9c" x="306.784187" y="334.961656" style="stroke: #000000"/>
     <use xlink:href="#m57ad25da9c" x="313.05213" y="334.929375" style="stroke: #000000"/>
     <use xlink:href="#m57ad25da9c" x="319.295001" y="334.94222" style="stroke: #000000"/>
     <use xlink:href="#m57ad25da9c" x="325.562944" y="334.949426" style="stroke: #000000"/>
     <use xlink:href="#m57ad25da9c" x="331.830886" y="334.818623" style="stroke: #000000"/>
     <use xlink:href="#m57ad25da9c" x="338.098829" y="334.695645" style="stroke: #000000"/>
     <use xlink:href="#m57ad25da9c" x="344.366772" y="334.699266" style="stroke: #000000"/>
     <use xlink:href="#m57ad25da9c" x="350.634715" y="334.508367" style="stroke: #000000"/>
     <use xlink:href="#m57ad25da9c" x="356.902658" y="334.145154" style="stroke: #000000"/>
     <use xlink:href="#m57ad25da9c" x="363.195673" y="333.624248" style="stroke: #000000"/>
     <use xlink:href="#m57ad25da9c" x="369.463615" y="332.776272" style="stroke: #000000"/>
     <use xlink:href="#m57ad25da9c" x="375.731558" y="331.672821" style="stroke: #000000"/>
     <use xlink:href="#m57ad25da9c" x="381.999501" y="331.348017" style="stroke: #000000"/>
     <use xlink:href="#m57ad25da9c" x="388.267444" y="330.783055" style="stroke: #000000"/>
     <use xlink:href="#m57ad25da9c" x="394.535387" y="329.899489" style="stroke: #000000"/>
     <use xlink:href="#m57ad25da9c" x="400.828402" y="328.863399" style="stroke: #000000"/>
     <use xlink:href="#m57ad25da9c" x="407.071273" y="327.747222" style="stroke: #000000"/>
     <use xlink:href="#m57ad25da9c" x="413.339216" y="328.52794" style="stroke: #000000"/>
     <use xlink:href="#m57ad25da9c" x="419.582087" y="329.509604" style="stroke: #000000"/>
     <use xlink:href="#m57ad25da9c" x="425.85003" y="330.241171" style="stroke: #000000"/>
     <use xlink:href="#m57ad25da9c" x="432.117973" y="331.20557" style="stroke: #000000"/>
     <use xlink:href="#m57ad25da9c" x="438.385915" y="331.788361" style="stroke: #000000"/>
     <use xlink:href="#m57ad25da9c" x="444.653858" y="332.295407" style="stroke: #000000"/>
     <use xlink:href="#m57ad25da9c" x="450.921801" y="332.910048" style="stroke: #000000"/>
     <use xlink:href="#m57ad25da9c" x="457.189744" y="333.250895" style="stroke: #000000"/>
     <use xlink:href="#m57ad25da9c" x="463.482759" y="333.509926" style="stroke: #000000"/>
     <use xlink:href="#m57ad25da9c" x="469.750702" y="333.507854" style="stroke: #000000"/>
     <use xlink:href="#m57ad25da9c" x="476.018644" y="333.461902" style="stroke: #000000"/>
     <use xlink:href="#m57ad25da9c" x="482.286587" y="333.555176" style="stroke: #000000"/>
     <use xlink:href="#m57ad25da9c" x="488.55453" y="333.518508" style="stroke: #000000"/>
     <use xlink:href="#m57ad25da9c" x="494.822473" y="333.459565" style="stroke: #000000"/>
     <use xlink:href="#m57ad25da9c" x="501.115488" y="333.533356" style="stroke: #000000"/>
     <use xlink:href="#m57ad25da9c" x="507.358359" y="333.574155" style="stroke: #000000"/>
     <use xlink:href="#m57ad25da9c" x="513.626302" y="333.586549" style="stroke: #000000"/>
     <use xlink:href="#m57ad25da9c" x="519.869173" y="333.669363" style="stroke: #000000"/>
     <use xlink:href="#m57ad25da9c" x="526.137116" y="333.66886" style="stroke: #000000"/>
     <use xlink:href="#m57ad25da9c" x="532.405059" y="333.644088" style="stroke: #000000"/>
     <use xlink:href="#m57ad25da9c" x="538.673001" y="333.691282" style="stroke: #000000"/>
     <use xlink:href="#m57ad25da9c" x="544.940944" y="333.717951" style="stroke: #000000"/>
     <use xlink:href="#m57ad25da9c" x="551.208887" y="333.67794" style="stroke: #000000"/>
     <use xlink:href="#m57ad25da9c" x="557.47683" y="333.710779" style="stroke: #000000"/>
     <use xlink:href="#m57ad25da9c" x="563.769845" y="333.747348" style="stroke: #000000"/>
     <use xlink:href="#m57ad25da9c" x="570.037788" y="333.679026" style="stroke: #000000"/>
     <use xlink:href="#m57ad25da9c" x="576.305731" y="333.619989" style="stroke: #000000"/>
     <use xlink:href="#m57ad25da9c" x="582.573673" y="333.606119" style="stroke: #000000"/>
     <use xlink:href="#m57ad25da9c" x="588.841616" y="333.474844" style="stroke: #000000"/>
     <use xlink:href="#m57ad25da9c" x="595.109559" y="333.407089" style="stroke: #000000"/>
     <use xlink:href="#m57ad25da9c" x="601.402574" y="333.503695" style="stroke: #000000"/>
     <use xlink:href="#m57ad25da9c" x="607.645445" y="333.426879" style="stroke: #000000"/>
     <use xlink:href="#m57ad25da9c" x="613.913388" y="333.36811" style="stroke: #000000"/>
     <use xlink:href="#m57ad25da9c" x="620.156259" y="333.439487" style="stroke: #000000"/>
     <use xlink:href="#m57ad25da9c" x="626.424202" y="333.342491" style="stroke: #000000"/>
     <use xlink:href="#m57ad25da9c" x="632.692145" y="333.239186" style="stroke: #000000"/>
     <use xlink:href="#m57ad25da9c" x="638.960088" y="333.229637" style="stroke: #000000"/>
     <use xlink:href="#m57ad25da9c" x="645.22803" y="333.118775" style="stroke: #000000"/>
     <use xlink:href="#m57ad25da9c" x="651.495973" y="332.939274" style="stroke: #000000"/>
     <use xlink:href="#m57ad25da9c" x="657.763916" y="332.767597" style="stroke: #000000"/>
     <use xlink:href="#m57ad25da9c" x="664.056931" y="332.439865" style="stroke: #000000"/>
     <use xlink:href="#m57ad25da9c" x="670.324874" y="331.928212" style="stroke: #000000"/>
     <use xlink:href="#m57ad25da9c" x="676.592817" y="331.362745" style="stroke: #000000"/>
     <use xlink:href="#m57ad25da9c" x="682.86076" y="330.695479" style="stroke: #000000"/>
     <use xlink:href="#m57ad25da9c" x="689.128702" y="329.544246" style="stroke: #000000"/>
     <use xlink:href="#m57ad25da9c" x="695.396645" y="327.279353" style="stroke: #000000"/>
     <use xlink:href="#m57ad25da9c" x="701.68966" y="321.693781" style="stroke: #000000"/>
     <use xlink:href="#m57ad25da9c" x="707.932531" y="307.805538" style="stroke: #000000"/>
     <use xlink:href="#m57ad25da9c" x="714.200474" y="278.433289" style="stroke: #000000"/>
     <use xlink:href="#m57ad25da9c" x="720.443345" y="225.923564" style="stroke: #000000"/>
     <use xlink:href="#m57ad25da9c" x="726.711288" y="146.171032" style="stroke: #000000"/>
     <use xlink:href="#m57ad25da9c" x="732.979231" y="45.421533" style="stroke: #000000"/>
    </g>
   </g>
   <g id="patch_3">
    <path d="M 52.9325 390.04 
L 52.9325 14.76 
" style="fill: none; stroke: #000000; stroke-width: 0.8; stroke-linejoin: miter; stroke-linecap: square"/>
   </g>
   <g id="patch_4">
    <path d="M 810.1 390.04 
L 810.1 14.76 
" style="fill: none; stroke: #000000; stroke-width: 0.8; stroke-linejoin: miter; stroke-linecap: square"/>
   </g>
   <g id="patch_5">
    <path d="M 52.9325 390.04 
L 810.1 390.04 
" style="fill: none; stroke: #000000; stroke-width: 0.8; stroke-linejoin: miter; stroke-linecap: square"/>
   </g>
   <g id="patch_6">
    <path d="M 52.9325 14.76 
L 810.1 14.76 
" style="fill: none; stroke: #000000; stroke-width: 0.8; stroke-linejoin: miter; stroke-linecap: square"/>
   </g>
   <g id="text_13">
    <!-- 2004.8739  -->
    <g style="fill: #0000ff" transform="translate(156.56585 387.544375) scale(0.12 -0.12)">
     <defs>
      <path id="DejaVuSans-37" d="M 525 4666 
L 3525 4666 
L 3525 4397 
L 1831 0 
L 1172 0 
L 2766 4134 
L 525 4134 
L 525 4666 
z
" transform="scale(0.015625)"/>
      <path id="DejaVuSans-33" d="M 2597 2516 
Q 3050 2419 3304 2112 
Q 3559 1806 3559 1356 
Q 3559 666 3084 287 
Q 2609 -91 1734 -91 
Q 1441 -91 1130 -33 
Q 819 25 488 141 
L 488 750 
Q 750 597 1062 519 
Q 1375 441 1716 441 
Q 2309 441 2620 675 
Q 2931 909 2931 1356 
Q 2931 1769 2642 2001 
Q 2353 2234 1838 2234 
L 1294 2234 
L 1294 2753 
L 1863 2753 
Q 2328 2753 2575 2939 
Q 2822 3125 2822 3475 
Q 2822 3834 2567 4026 
Q 2313 4219 1838 4219 
Q 1578 4219 1281 4162 
Q 984 4106 628 3988 
L 628 4550 
Q 988 4650 1302 4700 
Q 1616 4750 1894 4750 
Q 2613 4750 3031 4423 
Q 3450 4097 3450 3541 
Q 3450 3153 3228 2886 
Q 3006 2619 2597 2516 
z
" transform="scale(0.015625)"/>
      <path id="DejaVuSans-39" d="M 703 97 
L 703 672 
Q 941 559 1184 500 
Q 1428 441 1663 441 
Q 2288 441 2617 861 
Q 2947 1281 2994 2138 
Q 2813 1869 2534 1725 
Q 2256 1581 1919 1581 
Q 1219 1581 811 2004 
Q 403 2428 403 3163 
Q 403 3881 828 4315 
Q 1253 4750 1959 4750 
Q 2769 4750 3195 4129 
Q 3622 3509 3622 2328 
Q 3622 1225 3098 567 
Q 2575 -91 1691 -91 
Q 1453 -91 1209 -44 
Q 966 3 703 97 
z
M 1959 2075 
Q 2384 2075 2632 2365 
Q 2881 2656 2881 3163 
Q 2881 3666 2632 3958 
Q 2384 4250 1959 4250 
Q 1534 4250 1286 3958 
Q 1038 3666 1038 3163 
Q 1038 2656 1286 2365 
Q 1534 2075 1959 2075 
z
" transform="scale(0.015625)"/>
     </defs>
     <use xlink:href="#DejaVuSans-32"/>
     <use xlink:href="#DejaVuSans-30" x="63.623047"/>
     <use xlink:href="#DejaVuSans-30" x="127.246094"/>
     <use xlink:href="#DejaVuSans-34" x="190.869141"/>
     <use xlink:href="#DejaVuSans-2e" x="254.492188"/>
     <use xlink:href="#DejaVuSans-38" x="286.279297"/>
     <use xlink:href="#DejaVuSans-37" x="349.902344"/>
     <use xlink:href="#DejaVuSans-33" x="413.525391"/>
     <use xlink:href="#DejaVuSans-39" x="477.148438"/>
     <use xlink:href="#DejaVuSans-20" x="540.771484"/>
    </g>
   </g>
   <g id="text_14">
    <!--  2024.3749 -->
    <g style="fill: #0000ff" transform="translate(714.197967 387.544375) scale(0.12 -0.12)">
     <use xlink:href="#DejaVuSans-20"/>
     <use xlink:href="#DejaVuSans-32" x="31.787109"/>
     <use xlink:href="#DejaVuSans-30" x="95.410156"/>
     <use xlink:href="#DejaVuSans-32" x="159.033203"/>
     <use xlink:href="#DejaVuSans-34" x="222.65625"/>
     <use xlink:href="#DejaVuSans-2e" x="286.279297"/>
     <use xlink:href="#DejaVuSans-33" x="318.066406"/>
     <use xlink:href="#DejaVuSans-37" x="381.689453"/>
     <use xlink:href="#DejaVuSans-34" x="445.3125"/>
     <use xlink:href="#DejaVuSans-39" x="508.935547"/>
    </g>
   </g>
   <g id="text_15">
    <!-- 2022.87  -->
    <g transform="translate(623.029958 387.544375) scale(0.12 -0.12)">
     <use xlink:href="#DejaVuSans-32"/>
     <use xlink:href="#DejaVuSans-30" x="63.623047"/>
     <use xlink:href="#DejaVuSans-32" x="127.246094"/>
     <use xlink:href="#DejaVuSans-32" x="190.869141"/>
     <use xlink:href="#DejaVuSans-2e" x="254.492188"/>
     <use xlink:href="#DejaVuSans-38" x="286.279297"/>
     <use xlink:href="#DejaVuSans-37" x="349.902344"/>
     <use xlink:href="#DejaVuSans-20" x="413.525391"/>
    </g>
   </g>
   <g id="text_16">
    <!-- 2014.62  -->
    <g style="fill: #ff0000" transform="translate(416.187843 387.544375) scale(0.12 -0.12)">
     <use xlink:href="#DejaVuSans-32"/>
     <use xlink:href="#DejaVuSans-30" x="63.623047"/>
     <use xlink:href="#DejaVuSans-31" x="127.246094"/>
     <use xlink:href="#DejaVuSans-34" x="190.869141"/>
     <use xlink:href="#DejaVuSans-2e" x="254.492188"/>
     <use xlink:href="#DejaVuSans-36" x="286.279297"/>
     <use xlink:href="#DejaVuSans-32" x="349.902344"/>
     <use xlink:href="#DejaVuSans-20" x="413.525391"/>
    </g>
   </g>
   <g id="text_17">
    <!-- 2019.62  -->
    <g style="fill: #ff0000" transform="translate(541.5467 387.544375) scale(0.12 -0.12)">
     <use xlink:href="#DejaVuSans-32"/>
     <use xlink:href="#DejaVuSans-30" x="63.623047"/>
     <use xlink:href="#DejaVuSans-31" x="127.246094"/>
     <use xlink:href="#DejaVuSans-39" x="190.869141"/>
     <use xlink:href="#DejaVuSans-2e" x="254.492188"/>
     <use xlink:href="#DejaVuSans-36" x="286.279297"/>
     <use xlink:href="#DejaVuSans-32" x="349.902344"/>
     <use xlink:href="#DejaVuSans-20" x="413.525391"/>
    </g>
   </g>
   <g id="legend_1">
    <g id="patch_7">
     <path d="M 59.9325 56.16 
L 423.8325 56.16 
Q 425.8325 56.16 425.8325 54.16 
L 425.8325 21.76 
Q 425.8325 19.76 423.8325 19.76 
L 59.9325 19.76 
Q 57.9325 19.76 57.9325 21.76 
L 57.9325 54.16 
Q 57.9325 56.16 59.9325 56.16 
z
" style="fill: #ffffff; opacity: 0.8; stroke: #cccccc; stroke-linejoin: miter"/>
    </g>
    <g id="line2d_22">
     <path d="M 61.9325 28.780313 
L 71.9325 28.780313 
L 81.9325 28.780313 
" style="fill: none; stroke: #000000; stroke-width: 1.5; stroke-linecap: square"/>
     <g>
      <use xlink:href="#m57ad25da9c" x="71.9325" y="28.780313" style="stroke: #000000"/>
     </g>
    </g>
    <g id="text_18">
     <!-- (left axis) Obs. error of Core field $\mathbf{C}^\mathrm{(data)}$ [ MCM 2024 ] -->
     <g transform="translate(89.9325 32.280313) scale(0.1 -0.1)">
      <defs>
       <path id="DejaVuSans-6c" d="M 603 4863 
L 1178 4863 
L 1178 0 
L 603 0 
L 603 4863 
z
" transform="scale(0.015625)"/>
       <path id="DejaVuSans-66" d="M 2375 4863 
L 2375 4384 
L 1825 4384 
Q 1516 4384 1395 4259 
Q 1275 4134 1275 3809 
L 1275 3500 
L 2222 3500 
L 2222 3053 
L 1275 3053 
L 1275 0 
L 697 0 
L 697 3053 
L 147 3053 
L 147 3500 
L 697 3500 
L 697 3744 
Q 697 4328 969 4595 
Q 1241 4863 1831 4863 
L 2375 4863 
z
" transform="scale(0.015625)"/>
       <path id="DejaVuSans-78" d="M 3513 3500 
L 2247 1797 
L 3578 0 
L 2900 0 
L 1881 1375 
L 863 0 
L 184 0 
L 1544 1831 
L 300 3500 
L 978 3500 
L 1906 2253 
L 2834 3500 
L 3513 3500 
z
" transform="scale(0.015625)"/>
       <path id="DejaVuSans-69" d="M 603 3500 
L 1178 3500 
L 1178 0 
L 603 0 
L 603 3500 
z
M 603 4863 
L 1178 4863 
L 1178 4134 
L 603 4134 
L 603 4863 
z
" transform="scale(0.015625)"/>
       <path id="DejaVuSans-73" d="M 2834 3397 
L 2834 2853 
Q 2591 2978 2328 3040 
Q 2066 3103 1784 3103 
Q 1356 3103 1142 2972 
Q 928 2841 928 2578 
Q 928 2378 1081 2264 
Q 1234 2150 1697 2047 
L 1894 2003 
Q 2506 1872 2764 1633 
Q 3022 1394 3022 966 
Q 3022 478 2636 193 
Q 2250 -91 1575 -91 
Q 1294 -91 989 -36 
Q 684 19 347 128 
L 347 722 
Q 666 556 975 473 
Q 1284 391 1588 391 
Q 1994 391 2212 530 
Q 2431 669 2431 922 
Q 2431 1156 2273 1281 
Q 2116 1406 1581 1522 
L 1381 1569 
Q 847 1681 609 1914 
Q 372 2147 372 2553 
Q 372 3047 722 3315 
Q 1072 3584 1716 3584 
Q 2034 3584 2315 3537 
Q 2597 3491 2834 3397 
z
" transform="scale(0.015625)"/>
       <path id="DejaVuSans-4f" d="M 2522 4238 
Q 1834 4238 1429 3725 
Q 1025 3213 1025 2328 
Q 1025 1447 1429 934 
Q 1834 422 2522 422 
Q 3209 422 3611 934 
Q 4013 1447 4013 2328 
Q 4013 3213 3611 3725 
Q 3209 4238 2522 4238 
z
M 2522 4750 
Q 3503 4750 4090 4092 
Q 4678 3434 4678 2328 
Q 4678 1225 4090 567 
Q 3503 -91 2522 -91 
Q 1538 -91 948 565 
Q 359 1222 359 2328 
Q 359 3434 948 4092 
Q 1538 4750 2522 4750 
z
" transform="scale(0.015625)"/>
       <path id="DejaVuSans-62" d="M 3116 1747 
Q 3116 2381 2855 2742 
Q 2594 3103 2138 3103 
Q 1681 3103 1420 2742 
Q 1159 2381 1159 1747 
Q 1159 1113 1420 752 
Q 1681 391 2138 391 
Q 2594 391 2855 752 
Q 3116 1113 3116 1747 
z
M 1159 2969 
Q 1341 3281 1617 3432 
Q 1894 3584 2278 3584 
Q 2916 3584 3314 3078 
Q 3713 2572 3713 1747 
Q 3713 922 3314 415 
Q 2916 -91 2278 -91 
Q 1894 -91 1617 61 
Q 1341 213 1159 525 
L 1159 0 
L 581 0 
L 581 4863 
L 1159 4863 
L 1159 2969 
z
" transform="scale(0.015625)"/>
       <path id="DejaVuSans-6f" d="M 1959 3097 
Q 1497 3097 1228 2736 
Q 959 2375 959 1747 
Q 959 1119 1226 758 
Q 1494 397 1959 397 
Q 2419 397 2687 759 
Q 2956 1122 2956 1747 
Q 2956 2369 2687 2733 
Q 2419 3097 1959 3097 
z
M 1959 3584 
Q 2709 3584 3137 3096 
Q 3566 2609 3566 1747 
Q 3566 888 3137 398 
Q 2709 -91 1959 -91 
Q 1206 -91 779 398 
Q 353 888 353 1747 
Q 353 2609 779 3096 
Q 1206 3584 1959 3584 
z
" transform="scale(0.015625)"/>
       <path id="DejaVuSans-43" d="M 4122 4306 
L 4122 3641 
Q 3803 3938 3442 4084 
Q 3081 4231 2675 4231 
Q 1875 4231 1450 3742 
Q 1025 3253 1025 2328 
Q 1025 1406 1450 917 
Q 1875 428 2675 428 
Q 3081 428 3442 575 
Q 3803 722 4122 1019 
L 4122 359 
Q 3791 134 3420 21 
Q 3050 -91 2638 -91 
Q 1578 -91 968 557 
Q 359 1206 359 2328 
Q 359 3453 968 4101 
Q 1578 4750 2638 4750 
Q 3056 4750 3426 4639 
Q 3797 4528 4122 4306 
z
" transform="scale(0.015625)"/>
       <path id="DejaVuSans-64" d="M 2906 2969 
L 2906 4863 
L 3481 4863 
L 3481 0 
L 2906 0 
L 2906 525 
Q 2725 213 2448 61 
Q 2172 -91 1784 -91 
Q 1150 -91 751 415 
Q 353 922 353 1747 
Q 353 2572 751 3078 
Q 1150 3584 1784 3584 
Q 2172 3584 2448 3432 
Q 2725 3281 2906 2969 
z
M 947 1747 
Q 947 1113 1208 752 
Q 1469 391 1925 391 
Q 2381 391 2643 752 
Q 2906 1113 2906 1747 
Q 2906 2381 2643 2742 
Q 2381 3103 1925 3103 
Q 1469 3103 1208 2742 
Q 947 2381 947 1747 
z
" transform="scale(0.015625)"/>
       <path id="DejaVuSans-4d" d="M 628 4666 
L 1569 4666 
L 2759 1491 
L 3956 4666 
L 4897 4666 
L 4897 0 
L 4281 0 
L 4281 4097 
L 3078 897 
L 2444 897 
L 1241 4097 
L 1241 0 
L 628 0 
L 628 4666 
z
" transform="scale(0.015625)"/>
      </defs>
      <use xlink:href="#DejaVuSans-28" transform="translate(0 0.529687)"/>
      <use xlink:href="#DejaVuSans-6c" transform="translate(39.013672 0.529687)"/>
      <use xlink:href="#DejaVuSans-65" transform="translate(66.796875 0.529687)"/>
      <use xlink:href="#DejaVuSans-66" transform="translate(128.320312 0.529687)"/>
      <use xlink:href="#DejaVuSans-74" transform="translate(163.525391 0.529687)"/>
      <use xlink:href="#DejaVuSans-20" transform="translate(202.734375 0.529687)"/>
      <use xlink:href="#DejaVuSans-61" transform="translate(234.521484 0.529687)"/>
      <use xlink:href="#DejaVuSans-78" transform="translate(295.800781 0.529687)"/>
      <use xlink:href="#DejaVuSans-69" transform="translate(354.980469 0.529687)"/>
      <use xlink:href="#DejaVuSans-73" transform="translate(382.763672 0.529687)"/>
      <use xlink:href="#DejaVuSans-29" transform="translate(434.863281 0.529687)"/>
      <use xlink:href="#DejaVuSans-20" transform="translate(473.876953 0.529687)"/>
      <use xlink:href="#DejaVuSans-4f" transform="translate(505.664062 0.529687)"/>
      <use xlink:href="#DejaVuSans-62" transform="translate(584.375 0.529687)"/>
      <use xlink:href="#DejaVuSans-73" transform="translate(647.851562 0.529687)"/>
      <use xlink:href="#DejaVuSans-2e" transform="translate(699.951172 0.529687)"/>
      <use xlink:href="#DejaVuSans-20" transform="translate(731.738281 0.529687)"/>
      <use xlink:href="#DejaVuSans-65" transform="translate(763.525391 0.529687)"/>
      <use xlink:href="#DejaVuSans-72" transform="translate(825.048828 0.529687)"/>
      <use xlink:href="#DejaVuSans-72" transform="translate(866.162109 0.529687)"/>
      <use xlink:href="#DejaVuSans-6f" transform="translate(907.275391 0.529687)"/>
      <use xlink:href="#DejaVuSans-72" transform="translate(968.457031 0.529687)"/>
      <use xlink:href="#DejaVuSans-20" transform="translate(1009.570312 0.529687)"/>
      <use xlink:href="#DejaVuSans-6f" transform="translate(1041.357422 0.529687)"/>
      <use xlink:href="#DejaVuSans-66" transform="translate(1102.539062 0.529687)"/>
      <use xlink:href="#DejaVuSans-20" transform="translate(1137.744141 0.529687)"/>
      <use xlink:href="#DejaVuSans-43" transform="translate(1169.53125 0.529687)"/>
      <use xlink:href="#DejaVuSans-6f" transform="translate(1239.355469 0.529687)"/>
      <use xlink:href="#DejaVuSans-72" transform="translate(1300.537109 0.529687)"/>
      <use xlink:href="#DejaVuSans-65" transform="translate(1341.650391 0.529687)"/>
      <use xlink:href="#DejaVuSans-20" transform="translate(1403.173828 0.529687)"/>
      <use xlink:href="#DejaVuSans-66" transform="translate(1434.960938 0.529687)"/>
      <use xlink:href="#DejaVuSans-69" transform="translate(1470.166016 0.529687)"/>
      <use xlink:href="#DejaVuSans-65" transform="translate(1497.949219 0.529687)"/>
      <use xlink:href="#DejaVuSans-6c" transform="translate(1559.472656 0.529687)"/>
      <use xlink:href="#DejaVuSans-64" transform="translate(1587.255859 0.529687)"/>
      <use xlink:href="#DejaVuSans-20" transform="translate(1650.732422 0.529687)"/>
      <use xlink:href="#DejaVuSans-Bold-43" transform="translate(1682.519531 0.529687)"/>
      <use xlink:href="#DejaVuSans-28" transform="translate(1756.865234 38.810937) scale(0.7)"/>
      <use xlink:href="#DejaVuSans-64" transform="translate(1784.174805 38.810937) scale(0.7)"/>
      <use xlink:href="#DejaVuSans-61" transform="translate(1828.608398 38.810937) scale(0.7)"/>
      <use xlink:href="#DejaVuSans-74" transform="translate(1871.503906 38.810937) scale(0.7)"/>
      <use xlink:href="#DejaVuSans-61" transform="translate(1898.950195 38.810937) scale(0.7)"/>
      <use xlink:href="#DejaVuSans-29" transform="translate(1941.845703 38.810937) scale(0.7)"/>
      <use xlink:href="#DejaVuSans-20" transform="translate(1971.889648 0.529687)"/>
      <use xlink:href="#DejaVuSans-5b" transform="translate(2003.676758 0.529687)"/>
      <use xlink:href="#DejaVuSans-20" transform="translate(2042.69043 0.529687)"/>
      <use xlink:href="#DejaVuSans-4d" transform="translate(2074.477539 0.529687)"/>
      <use xlink:href="#DejaVuSans-43" transform="translate(2160.756836 0.529687)"/>
      <use xlink:href="#DejaVuSans-4d" transform="translate(2230.581055 0.529687)"/>
      <use xlink:href="#DejaVuSans-20" transform="translate(2316.860352 0.529687)"/>
      <use xlink:href="#DejaVuSans-32" transform="translate(2348.647461 0.529687)"/>
      <use xlink:href="#DejaVuSans-30" transform="translate(2412.270508 0.529687)"/>
      <use xlink:href="#DejaVuSans-32" transform="translate(2475.893555 0.529687)"/>
      <use xlink:href="#DejaVuSans-34" transform="translate(2539.516602 0.529687)"/>
      <use xlink:href="#DejaVuSans-20" transform="translate(2603.139648 0.529687)"/>
      <use xlink:href="#DejaVuSans-5d" transform="translate(2634.926758 0.529687)"/>
     </g>
    </g>
    <g id="line2d_23">
     <path d="M 61.9325 46.56 
L 71.9325 46.56 
L 81.9325 46.56 
" style="fill: none; stroke: #ff0000; stroke-width: 1.5; stroke-linecap: square"/>
     <defs>
      <path id="m571c73d62b" d="M 0 3 
C 0.795609 3 1.55874 2.683901 2.12132 2.12132 
C 2.683901 1.55874 3 0.795609 3 0 
C 3 -0.795609 2.683901 -1.55874 2.12132 -2.12132 
C 1.55874 -2.683901 0.795609 -3 0 -3 
C -0.795609 -3 -1.55874 -2.683901 -2.12132 -2.12132 
C -2.683901 -1.55874 -3 -0.795609 -3 0 
C -3 0.795609 -2.683901 1.55874 -2.12132 2.12132 
C -1.55874 2.683901 -0.795609 3 0 3 
z
" style="stroke: #ff0000"/>
     </defs>
     <g>
      <use xlink:href="#m571c73d62b" x="71.9325" y="46.56" style="fill: #ff0000; stroke: #ff0000"/>
     </g>
    </g>
    <g id="text_19">
     <!-- (right axis) Obs. error of Acceleration $\ddot{\mathbf{C}}^\mathrm{(data)}$ [ derived by Eq. (25) ] -->
     <g transform="translate(89.9325 50.06) scale(0.1 -0.1)">
      <defs>
       <path id="DejaVuSans-67" d="M 2906 1791 
Q 2906 2416 2648 2759 
Q 2391 3103 1925 3103 
Q 1463 3103 1205 2759 
Q 947 2416 947 1791 
Q 947 1169 1205 825 
Q 1463 481 1925 481 
Q 2391 481 2648 825 
Q 2906 1169 2906 1791 
z
M 3481 434 
Q 3481 -459 3084 -895 
Q 2688 -1331 1869 -1331 
Q 1566 -1331 1297 -1286 
Q 1028 -1241 775 -1147 
L 775 -588 
Q 1028 -725 1275 -790 
Q 1522 -856 1778 -856 
Q 2344 -856 2625 -561 
Q 2906 -266 2906 331 
L 2906 616 
Q 2728 306 2450 153 
Q 2172 0 1784 0 
Q 1141 0 747 490 
Q 353 981 353 1791 
Q 353 2603 747 3093 
Q 1141 3584 1784 3584 
Q 2172 3584 2450 3431 
Q 2728 3278 2906 2969 
L 2906 3500 
L 3481 3500 
L 3481 434 
z
" transform="scale(0.015625)"/>
       <path id="DejaVuSans-68" d="M 3513 2113 
L 3513 0 
L 2938 0 
L 2938 2094 
Q 2938 2591 2744 2837 
Q 2550 3084 2163 3084 
Q 1697 3084 1428 2787 
Q 1159 2491 1159 1978 
L 1159 0 
L 581 0 
L 581 4863 
L 1159 4863 
L 1159 2956 
Q 1366 3272 1645 3428 
Q 1925 3584 2291 3584 
Q 2894 3584 3203 3211 
Q 3513 2838 3513 2113 
z
" transform="scale(0.015625)"/>
       <path id="DejaVuSans-41" d="M 2188 4044 
L 1331 1722 
L 3047 1722 
L 2188 4044 
z
M 1831 4666 
L 2547 4666 
L 4325 0 
L 3669 0 
L 3244 1197 
L 1141 1197 
L 716 0 
L 50 0 
L 1831 4666 
z
" transform="scale(0.015625)"/>
       <path id="DejaVuSans-63" d="M 3122 3366 
L 3122 2828 
Q 2878 2963 2633 3030 
Q 2388 3097 2138 3097 
Q 1578 3097 1268 2742 
Q 959 2388 959 1747 
Q 959 1106 1268 751 
Q 1578 397 2138 397 
Q 2388 397 2633 464 
Q 2878 531 3122 666 
L 3122 134 
Q 2881 22 2623 -34 
Q 2366 -91 2075 -91 
Q 1284 -91 818 406 
Q 353 903 353 1747 
Q 353 2603 823 3093 
Q 1294 3584 2113 3584 
Q 2378 3584 2631 3529 
Q 2884 3475 3122 3366 
z
" transform="scale(0.015625)"/>
       <path id="DejaVuSans-308" d="M -1306 4850 
L -672 4850 
L -672 4219 
L -1306 4219 
L -1306 4850 
z
M -2528 4850 
L -1894 4850 
L -1894 4219 
L -2528 4219 
L -2528 4850 
z
M -1600 3584 
L -1600 3584 
z
" transform="scale(0.015625)"/>
       <path id="DejaVuSans-76" d="M 191 3500 
L 800 3500 
L 1894 563 
L 2988 3500 
L 3597 3500 
L 2284 0 
L 1503 0 
L 191 3500 
z
" transform="scale(0.015625)"/>
       <path id="DejaVuSans-45" d="M 628 4666 
L 3578 4666 
L 3578 4134 
L 1259 4134 
L 1259 2753 
L 3481 2753 
L 3481 2222 
L 1259 2222 
L 1259 531 
L 3634 531 
L 3634 0 
L 628 0 
L 628 4666 
z
" transform="scale(0.015625)"/>
       <path id="DejaVuSans-71" d="M 947 1747 
Q 947 1113 1208 752 
Q 1469 391 1925 391 
Q 2381 391 2643 752 
Q 2906 1113 2906 1747 
Q 2906 2381 2643 2742 
Q 2381 3103 1925 3103 
Q 1469 3103 1208 2742 
Q 947 2381 947 1747 
z
M 2906 525 
Q 2725 213 2448 61 
Q 2172 -91 1784 -91 
Q 1150 -91 751 415 
Q 353 922 353 1747 
Q 353 2572 751 3078 
Q 1150 3584 1784 3584 
Q 2172 3584 2448 3432 
Q 2725 3281 2906 2969 
L 2906 3500 
L 3481 3500 
L 3481 -1331 
L 2906 -1331 
L 2906 525 
z
" transform="scale(0.015625)"/>
      </defs>
      <use xlink:href="#DejaVuSans-28" transform="translate(0 0.5)"/>
      <use xlink:href="#DejaVuSans-72" transform="translate(39.013672 0.5)"/>
      <use xlink:href="#DejaVuSans-69" transform="translate(80.126953 0.5)"/>
      <use xlink:href="#DejaVuSans-67" transform="translate(107.910156 0.5)"/>
      <use xlink:href="#DejaVuSans-68" transform="translate(171.386719 0.5)"/>
      <use xlink:href="#DejaVuSans-74" transform="translate(234.765625 0.5)"/>
      <use xlink:href="#DejaVuSans-20" transform="translate(273.974609 0.5)"/>
      <use xlink:href="#DejaVuSans-61" transform="translate(305.761719 0.5)"/>
      <use xlink:href="#DejaVuSans-78" transform="translate(367.041016 0.5)"/>
      <use xlink:href="#DejaVuSans-69" transform="translate(426.220703 0.5)"/>
      <use xlink:href="#DejaVuSans-73" transform="translate(454.003906 0.5)"/>
      <use xlink:href="#DejaVuSans-29" transform="translate(506.103516 0.5)"/>
      <use xlink:href="#DejaVuSans-20" transform="translate(545.117188 0.5)"/>
      <use xlink:href="#DejaVuSans-4f" transform="translate(576.904297 0.5)"/>
      <use xlink:href="#DejaVuSans-62" transform="translate(655.615234 0.5)"/>
      <use xlink:href="#DejaVuSans-73" transform="translate(719.091797 0.5)"/>
      <use xlink:href="#DejaVuSans-2e" transform="translate(771.191406 0.5)"/>
      <use xlink:href="#DejaVuSans-20" transform="translate(802.978516 0.5)"/>
      <use xlink:href="#DejaVuSans-65" transform="translate(834.765625 0.5)"/>
      <use xlink:href="#DejaVuSans-72" transform="translate(896.289062 0.5)"/>
      <use xlink:href="#DejaVuSans-72" transform="translate(937.402344 0.5)"/>
      <use xlink:href="#DejaVuSans-6f" transform="translate(978.515625 0.5)"/>
      <use xlink:href="#DejaVuSans-72" transform="translate(1039.697266 0.5)"/>
      <use xlink:href="#DejaVuSans-20" transform="translate(1080.810547 0.5)"/>
      <use xlink:href="#DejaVuSans-6f" transform="translate(1112.597656 0.5)"/>
      <use xlink:href="#DejaVuSans-66" transform="translate(1173.779297 0.5)"/>
      <use xlink:href="#DejaVuSans-20" transform="translate(1208.984375 0.5)"/>
      <use xlink:href="#DejaVuSans-41" transform="translate(1240.771484 0.5)"/>
      <use xlink:href="#DejaVuSans-63" transform="translate(1309.179688 0.5)"/>
      <use xlink:href="#DejaVuSans-63" transform="translate(1364.160156 0.5)"/>
      <use xlink:href="#DejaVuSans-65" transform="translate(1419.140625 0.5)"/>
      <use xlink:href="#DejaVuSans-6c" transform="translate(1480.664062 0.5)"/>
      <use xlink:href="#DejaVuSans-65" transform="translate(1508.447266 0.5)"/>
      <use xlink:href="#DejaVuSans-72" transform="translate(1569.970703 0.5)"/>
      <use xlink:href="#DejaVuSans-61" transform="translate(1611.083984 0.5)"/>
      <use xlink:href="#DejaVuSans-74" transform="translate(1672.363281 0.5)"/>
      <use xlink:href="#DejaVuSans-69" transform="translate(1711.572266 0.5)"/>
      <use xlink:href="#DejaVuSans-6f" transform="translate(1739.355469 0.5)"/>
      <use xlink:href="#DejaVuSans-6e" transform="translate(1800.537109 0.5)"/>
      <use xlink:href="#DejaVuSans-20" transform="translate(1863.916016 0.5)"/>
      <use xlink:href="#DejaVuSans-308" transform="translate(1966.550293 31.21875)"/>
      <use xlink:href="#DejaVuSans-Bold-43" transform="translate(1895.703125 0.5)"/>
      <use xlink:href="#DejaVuSans-28" transform="translate(1970.048828 38.78125) scale(0.7)"/>
      <use xlink:href="#DejaVuSans-64" transform="translate(1997.358398 38.78125) scale(0.7)"/>
      <use xlink:href="#DejaVuSans-61" transform="translate(2041.791992 38.78125) scale(0.7)"/>
      <use xlink:href="#DejaVuSans-74" transform="translate(2084.6875 38.78125) scale(0.7)"/>
      <use xlink:href="#DejaVuSans-61" transform="translate(2112.133789 38.78125) scale(0.7)"/>
      <use xlink:href="#DejaVuSans-29" transform="translate(2155.029297 38.78125) scale(0.7)"/>
      <use xlink:href="#DejaVuSans-20" transform="translate(2185.073242 0.5)"/>
      <use xlink:href="#DejaVuSans-5b" transform="translate(2216.860352 0.5)"/>
      <use xlink:href="#DejaVuSans-20" transform="translate(2255.874023 0.5)"/>
      <use xlink:href="#DejaVuSans-64" transform="translate(2287.661133 0.5)"/>
      <use xlink:href="#DejaVuSans-65" transform="translate(2351.137695 0.5)"/>
      <use xlink:href="#DejaVuSans-72" transform="translate(2412.661133 0.5)"/>
      <use xlink:href="#DejaVuSans-69" transform="translate(2453.774414 0.5)"/>
      <use xlink:href="#DejaVuSans-76" transform="translate(2481.557617 0.5)"/>
      <use xlink:href="#DejaVuSans-65" transform="translate(2540.737305 0.5)"/>
      <use xlink:href="#DejaVuSans-64" transform="translate(2602.260742 0.5)"/>
      <use xlink:href="#DejaVuSans-20" transform="translate(2665.737305 0.5)"/>
      <use xlink:href="#DejaVuSans-62" transform="translate(2697.524414 0.5)"/>
      <use xlink:href="#DejaVuSans-79" transform="translate(2761.000977 0.5)"/>
      <use xlink:href="#DejaVuSans-20" transform="translate(2820.180664 0.5)"/>
      <use xlink:href="#DejaVuSans-45" transform="translate(2851.967773 0.5)"/>
      <use xlink:href="#DejaVuSans-71" transform="translate(2915.151367 0.5)"/>
      <use xlink:href="#DejaVuSans-2e" transform="translate(2978.62793 0.5)"/>
      <use xlink:href="#DejaVuSans-20" transform="translate(3010.415039 0.5)"/>
      <use xlink:href="#DejaVuSans-28" transform="translate(3042.202148 0.5)"/>
      <use xlink:href="#DejaVuSans-32" transform="translate(3081.21582 0.5)"/>
      <use xlink:href="#DejaVuSans-35" transform="translate(3144.838867 0.5)"/>
      <use xlink:href="#DejaVuSans-29" transform="translate(3208.461914 0.5)"/>
      <use xlink:href="#DejaVuSans-20" transform="translate(3247.475586 0.5)"/>
      <use xlink:href="#DejaVuSans-5d" transform="translate(3279.262695 0.5)"/>
     </g>
    </g>
   </g>
  </g>
  <g id="axes_2">
   <g id="matplotlib.axis_3">
    <g id="ytick_5">
     <g id="line2d_24">
      <defs>
       <path id="md660c0e74c" d="M 0 0 
L 3.5 0 
" style="stroke: #ff0000; stroke-width: 0.8"/>
      </defs>
      <g>
       <use xlink:href="#md660c0e74c" x="810.1" y="390.04" style="fill: #ff0000; stroke: #ff0000; stroke-width: 0.8"/>
      </g>
     </g>
     <g id="text_20">
      <!-- 5 -->
      <g style="fill: #ff0000" transform="translate(817.1 393.839219) scale(0.1 -0.1)">
       <use xlink:href="#DejaVuSans-35"/>
      </g>
     </g>
    </g>
    <g id="ytick_6">
     <g id="line2d_25">
      <g>
       <use xlink:href="#md660c0e74c" x="810.1" y="327.493333" style="fill: #ff0000; stroke: #ff0000; stroke-width: 0.8"/>
      </g>
     </g>
     <g id="text_21">
      <!-- 10 -->
      <g style="fill: #ff0000" transform="translate(817.1 331.292552) scale(0.1 -0.1)">
       <use xlink:href="#DejaVuSans-31"/>
       <use xlink:href="#DejaVuSans-30" x="63.623047"/>
      </g>
     </g>
    </g>
    <g id="ytick_7">
     <g id="line2d_26">
      <g>
       <use xlink:href="#md660c0e74c" x="810.1" y="264.946667" style="fill: #ff0000; stroke: #ff0000; stroke-width: 0.8"/>
      </g>
     </g>
     <g id="text_22">
      <!-- 15 -->
      <g style="fill: #ff0000" transform="translate(817.1 268.745885) scale(0.1 -0.1)">
       <use xlink:href="#DejaVuSans-31"/>
       <use xlink:href="#DejaVuSans-35" x="63.623047"/>
      </g>
     </g>
    </g>
    <g id="ytick_8">
     <g id="line2d_27">
      <g>
       <use xlink:href="#md660c0e74c" x="810.1" y="202.4" style="fill: #ff0000; stroke: #ff0000; stroke-width: 0.8"/>
      </g>
     </g>
     <g id="text_23">
      <!-- 20 -->
      <g style="fill: #ff0000" transform="translate(817.1 206.199219) scale(0.1 -0.1)">
       <use xlink:href="#DejaVuSans-32"/>
       <use xlink:href="#DejaVuSans-30" x="63.623047"/>
      </g>
     </g>
    </g>
    <g id="ytick_9">
     <g id="line2d_28">
      <g>
       <use xlink:href="#md660c0e74c" x="810.1" y="139.853333" style="fill: #ff0000; stroke: #ff0000; stroke-width: 0.8"/>
      </g>
     </g>
     <g id="text_24">
      <!-- 25 -->
      <g style="fill: #ff0000" transform="translate(817.1 143.652552) scale(0.1 -0.1)">
       <use xlink:href="#DejaVuSans-32"/>
       <use xlink:href="#DejaVuSans-35" x="63.623047"/>
      </g>
     </g>
    </g>
    <g id="ytick_10">
     <g id="line2d_29">
      <g>
       <use xlink:href="#md660c0e74c" x="810.1" y="77.306667" style="fill: #ff0000; stroke: #ff0000; stroke-width: 0.8"/>
      </g>
     </g>
     <g id="text_25">
      <!-- 30 -->
      <g style="fill: #ff0000" transform="translate(817.1 81.105885) scale(0.1 -0.1)">
       <use xlink:href="#DejaVuSans-33"/>
       <use xlink:href="#DejaVuSans-30" x="63.623047"/>
      </g>
     </g>
    </g>
    <g id="ytick_11">
     <g id="line2d_30">
      <g>
       <use xlink:href="#md660c0e74c" x="810.1" y="14.76" style="fill: #ff0000; stroke: #ff0000; stroke-width: 0.8"/>
      </g>
     </g>
     <g id="text_26">
      <!-- 35 -->
      <g style="fill: #ff0000" transform="translate(817.1 18.559219) scale(0.1 -0.1)">
       <use xlink:href="#DejaVuSans-33"/>
       <use xlink:href="#DejaVuSans-35" x="63.623047"/>
      </g>
     </g>
    </g>
    <g id="text_27">
     <!-- $\sqrt{ \mathrm{tr} \ddot{\mathbf{C}} (t)}$  [nT/yr$^2$] -->
     <g style="fill: #ff0000" transform="translate(848.225 243.95) rotate(-90) scale(0.1 -0.1)">
      <defs>
       <path id="DejaVuSans-2f" d="M 1625 4666 
L 2156 4666 
L 531 -594 
L 0 -594 
L 1625 4666 
z
" transform="scale(0.015625)"/>
      </defs>
      <use xlink:href="#STIXSizeOneSym-Regular-221a" transform="translate(0 11.171875) scale(0.81719)"/>
      <use xlink:href="#DejaVuSans-74" transform="translate(98.876709 0.25)"/>
      <use xlink:href="#DejaVuSans-72" transform="translate(138.085693 0.25)"/>
      <use xlink:href="#DejaVuSans-308" transform="translate(250.046143 30.96875)"/>
      <use xlink:href="#DejaVuSans-Bold-43" transform="translate(179.198975 0.25)"/>
      <use xlink:href="#DejaVuSans-28" transform="translate(252.587646 0.25)"/>
      <use xlink:href="#DejaVuSans-Oblique-74" transform="translate(291.601318 0.25)"/>
      <use xlink:href="#DejaVuSans-29" transform="translate(330.810303 0.25)"/>
      <use xlink:href="#DejaVuSans-20" transform="translate(382.323975 0.25)"/>
      <use xlink:href="#DejaVuSans-20" transform="translate(414.111084 0.25)"/>
      <use xlink:href="#DejaVuSans-5b" transform="translate(445.898193 0.25)"/>
      <use xlink:href="#DejaVuSans-6e" transform="translate(484.911865 0.25)"/>
      <use xlink:href="#DejaVuSans-54" transform="translate(548.290771 0.25)"/>
      <use xlink:href="#DejaVuSans-2f" transform="translate(609.374756 0.25)"/>
      <use xlink:href="#DejaVuSans-79" transform="translate(643.066162 0.25)"/>
      <use xlink:href="#DejaVuSans-72" transform="translate(702.24585 0.25)"/>
      <use xlink:href="#DejaVuSans-32" transform="translate(744.316162 38.53125) scale(0.7)"/>
      <use xlink:href="#DejaVuSans-5d" transform="translate(791.58667 0.25)"/>
      <path d="M 86.376709 131.5 
L 86.376709 137.75 
L 382.323975 137.75 
L 382.323975 131.5 
L 86.376709 131.5 
z
"/>
     </g>
    </g>
   </g>
   <g id="line2d_31">
    <path d="M 93.674129 175.09004 
L 99.967143 215.675558 
L 106.210014 232.896731 
L 112.477957 237.962896 
L 118.720828 240.801416 
L 124.988771 246.457153 
L 131.256714 255.019685 
L 137.524657 263.019949 
L 143.7926 268.805661 
L 150.060543 272.390837 
L 156.328486 274.379596 
L 162.6215 275.415338 
L 168.889443 275.874526 
L 175.157386 276.082657 
L 181.425329 276.323121 
L 187.693272 276.650577 
L 193.961215 276.899414 
L 200.254229 277.036489 
L 206.497101 277.033085 
L 212.765043 276.945841 
L 219.007915 276.940036 
L 225.275857 277.079964 
L 231.5438 277.131714 
L 237.811743 277.165195 
L 244.079686 277.240105 
L 250.347629 277.270915 
L 256.615572 277.297397 
L 262.908587 277.390104 
L 269.176529 277.44143 
L 275.444472 277.375761 
L 281.712415 277.362543 
L 287.980358 277.520535 
L 294.248301 277.606532 
L 300.541316 277.669424 
L 306.784187 277.767518 
L 313.05213 277.800355 
L 319.295001 277.781298 
L 325.562944 277.786625 
L 331.830886 277.768566 
L 338.098829 277.639164 
L 344.366772 277.513817 
L 350.634715 277.45318 
L 356.902658 277.225651 
L 363.195673 276.787163 
L 369.463615 276.119594 
L 375.731558 275.103189 
L 381.999501 273.972448 
L 388.267444 273.372085 
L 394.535387 272.669346 
L 400.828402 271.628973 
L 407.071273 270.38454 
L 413.339216 269.429487 
L 419.582087 270.034391 
L 425.85003 271.135775 
L 432.117973 272.122395 
L 438.385915 273.169809 
L 444.653858 273.940247 
L 450.921801 274.593379 
L 457.189744 275.263011 
L 463.482759 275.716203 
L 469.750702 275.994696 
L 476.018644 276.036201 
L 482.286587 276.017446 
L 488.55453 276.076265 
L 494.822473 276.053518 
L 501.115488 276.013293 
L 507.358359 276.069386 
L 513.626302 276.119887 
L 519.869173 276.154953 
L 526.137116 276.224438 
L 532.405059 276.235787 
L 538.673001 276.225176 
L 544.940944 276.263785 
L 551.208887 276.286841 
L 557.47683 276.266483 
L 563.769845 276.292385 
L 570.037788 276.314818 
L 576.305731 276.254927 
L 582.573673 276.19047 
L 588.841616 276.14069 
L 595.109559 276.01783 
L 601.402574 275.955939 
L 607.645445 276.004911 
L 613.913388 275.950356 
L 620.156259 275.901656 
L 626.424202 275.927924 
L 632.692145 275.842889 
L 638.960088 275.737649 
L 645.22803 275.686546 
L 651.495973 275.558448 
L 657.763916 275.355835 
L 664.056931 275.114023 
L 670.324874 274.710044 
L 676.592817 274.114609 
L 682.86076 273.417757 
L 689.128702 272.52902 
L 695.396645 270.999776 
L 701.68966 267.782423 
L 707.932531 259.874654 
L 714.200474 241.091222 
L 720.443345 202.703129 
L 726.711288 136.301978 
L 732.979231 39.26784 
" clip-path="url(#pf79b79df8e)" style="fill: none; stroke: #ff0000; stroke-width: 1.5; stroke-linecap: square"/>
    <g clip-path="url(#pf79b79df8e)">
     <use xlink:href="#m571c73d62b" x="93.674129" y="175.09004" style="fill: #ff0000; stroke: #ff0000"/>
     <use xlink:href="#m571c73d62b" x="99.967143" y="215.675558" style="fill: #ff0000; stroke: #ff0000"/>
     <use xlink:href="#m571c73d62b" x="106.210014" y="232.896731" style="fill: #ff0000; stroke: #ff0000"/>
     <use xlink:href="#m571c73d62b" x="112.477957" y="237.962896" style="fill: #ff0000; stroke: #ff0000"/>
     <use xlink:href="#m571c73d62b" x="118.720828" y="240.801416" style="fill: #ff0000; stroke: #ff0000"/>
     <use xlink:href="#m571c73d62b" x="124.988771" y="246.457153" style="fill: #ff0000; stroke: #ff0000"/>
     <use xlink:href="#m571c73d62b" x="131.256714" y="255.019685" style="fill: #ff0000; stroke: #ff0000"/>
     <use xlink:href="#m571c73d62b" x="137.524657" y="263.019949" style="fill: #ff0000; stroke: #ff0000"/>
     <use xlink:href="#m571c73d62b" x="143.7926" y="268.805661" style="fill: #ff0000; stroke: #ff0000"/>
     <use xlink:href="#m571c73d62b" x="150.060543" y="272.390837" style="fill: #ff0000; stroke: #ff0000"/>
     <use xlink:href="#m571c73d62b" x="156.328486" y="274.379596" style="fill: #ff0000; stroke: #ff0000"/>
     <use xlink:href="#m571c73d62b" x="162.6215" y="275.415338" style="fill: #ff0000; stroke: #ff0000"/>
     <use xlink:href="#m571c73d62b" x="168.889443" y="275.874526" style="fill: #ff0000; stroke: #ff0000"/>
     <use xlink:href="#m571c73d62b" x="175.157386" y="276.082657" style="fill: #ff0000; stroke: #ff0000"/>
     <use xlink:href="#m571c73d62b" x="181.425329" y="276.323121" style="fill: #ff0000; stroke: #ff0000"/>
     <use xlink:href="#m571c73d62b" x="187.693272" y="276.650577" style="fill: #ff0000; stroke: #ff0000"/>
     <use xlink:href="#m571c73d62b" x="193.961215" y="276.899414" style="fill: #ff0000; stroke: #ff0000"/>
     <use xlink:href="#m571c73d62b" x="200.254229" y="277.036489" style="fill: #ff0000; stroke: #ff0000"/>
     <use xlink:href="#m571c73d62b" x="206.497101" y="277.033085" style="fill: #ff0000; stroke: #ff0000"/>
     <use xlink:href="#m571c73d62b" x="212.765043" y="276.945841" style="fill: #ff0000; stroke: #ff0000"/>
     <use xlink:href="#m571c73d62b" x="219.007915" y="276.940036" style="fill: #ff0000; stroke: #ff0000"/>
     <use xlink:href="#m571c73d62b" x="225.275857" y="277.079964" style="fill: #ff0000; stroke: #ff0000"/>
     <use xlink:href="#m571c73d62b" x="231.5438" y="277.131714" style="fill: #ff0000; stroke: #ff0000"/>
     <use xlink:href="#m571c73d62b" x="237.811743" y="277.165195" style="fill: #ff0000; stroke: #ff0000"/>
     <use xlink:href="#m571c73d62b" x="244.079686" y="277.240105" style="fill: #ff0000; stroke: #ff0000"/>
     <use xlink:href="#m571c73d62b" x="250.347629" y="277.270915" style="fill: #ff0000; stroke: #ff0000"/>
     <use xlink:href="#m571c73d62b" x="256.615572" y="277.297397" style="fill: #ff0000; stroke: #ff0000"/>
     <use xlink:href="#m571c73d62b" x="262.908587" y="277.390104" style="fill: #ff0000; stroke: #ff0000"/>
     <use xlink:href="#m571c73d62b" x="269.176529" y="277.44143" style="fill: #ff0000; stroke: #ff0000"/>
     <use xlink:href="#m571c73d62b" x="275.444472" y="277.375761" style="fill: #ff0000; stroke: #ff0000"/>
     <use xlink:href="#m571c73d62b" x="281.712415" y="277.362543" style="fill: #ff0000; stroke: #ff0000"/>
     <use xlink:href="#m571c73d62b" x="287.980358" y="277.520535" style="fill: #ff0000; stroke: #ff0000"/>
     <use xlink:href="#m571c73d62b" x="294.248301" y="277.606532" style="fill: #ff0000; stroke: #ff0000"/>
     <use xlink:href="#m571c73d62b" x="300.541316" y="277.669424" style="fill: #ff0000; stroke: #ff0000"/>
     <use xlink:href="#m571c73d62b" x="306.784187" y="277.767518" style="fill: #ff0000; stroke: #ff0000"/>
     <use xlink:href="#m571c73d62b" x="313.05213" y="277.800355" style="fill: #ff0000; stroke: #ff0000"/>
     <use xlink:href="#m571c73d62b" x="319.295001" y="277.781298" style="fill: #ff0000; stroke: #ff0000"/>
     <use xlink:href="#m571c73d62b" x="325.562944" y="277.786625" style="fill: #ff0000; stroke: #ff0000"/>
     <use xlink:href="#m571c73d62b" x="331.830886" y="277.768566" style="fill: #ff0000; stroke: #ff0000"/>
     <use xlink:href="#m571c73d62b" x="338.098829" y="277.639164" style="fill: #ff0000; stroke: #ff0000"/>
     <use xlink:href="#m571c73d62b" x="344.366772" y="277.513817" style="fill: #ff0000; stroke: #ff0000"/>
     <use xlink:href="#m571c73d62b" x="350.634715" y="277.45318" style="fill: #ff0000; stroke: #ff0000"/>
     <use xlink:href="#m571c73d62b" x="356.902658" y="277.225651" style="fill: #ff0000; stroke: #ff0000"/>
     <use xlink:href="#m571c73d62b" x="363.195673" y="276.787163" style="fill: #ff0000; stroke: #ff0000"/>
     <use xlink:href="#m571c73d62b" x="369.463615" y="276.119594" style="fill: #ff0000; stroke: #ff0000"/>
     <use xlink:href="#m571c73d62b" x="375.731558" y="275.103189" style="fill: #ff0000; stroke: #ff0000"/>
     <use xlink:href="#m571c73d62b" x="381.999501" y="273.972448" style="fill: #ff0000; stroke: #ff0000"/>
     <use xlink:href="#m571c73d62b" x="388.267444" y="273.372085" style="fill: #ff0000; stroke: #ff0000"/>
     <use xlink:href="#m571c73d62b" x="394.535387" y="272.669346" style="fill: #ff0000; stroke: #ff0000"/>
     <use xlink:href="#m571c73d62b" x="400.828402" y="271.628973" style="fill: #ff0000; stroke: #ff0000"/>
     <use xlink:href="#m571c73d62b" x="407.071273" y="270.38454" style="fill: #ff0000; stroke: #ff0000"/>
     <use xlink:href="#m571c73d62b" x="413.339216" y="269.429487" style="fill: #ff0000; stroke: #ff0000"/>
     <use xlink:href="#m571c73d62b" x="419.582087" y="270.034391" style="fill: #ff0000; stroke: #ff0000"/>
     <use xlink:href="#m571c73d62b" x="425.85003" y="271.135775" style="fill: #ff0000; stroke: #ff0000"/>
     <use xlink:href="#m571c73d62b" x="432.117973" y="272.122395" style="fill: #ff0000; stroke: #ff0000"/>
     <use xlink:href="#m571c73d62b" x="438.385915" y="273.169809" style="fill: #ff0000; stroke: #ff0000"/>
     <use xlink:href="#m571c73d62b" x="444.653858" y="273.940247" style="fill: #ff0000; stroke: #ff0000"/>
     <use xlink:href="#m571c73d62b" x="450.921801" y="274.593379" style="fill: #ff0000; stroke: #ff0000"/>
     <use xlink:href="#m571c73d62b" x="457.189744" y="275.263011" style="fill: #ff0000; stroke: #ff0000"/>
     <use xlink:href="#m571c73d62b" x="463.482759" y="275.716203" style="fill: #ff0000; stroke: #ff0000"/>
     <use xlink:href="#m571c73d62b" x="469.750702" y="275.994696" style="fill: #ff0000; stroke: #ff0000"/>
     <use xlink:href="#m571c73d62b" x="476.018644" y="276.036201" style="fill: #ff0000; stroke: #ff0000"/>
     <use xlink:href="#m571c73d62b" x="482.286587" y="276.017446" style="fill: #ff0000; stroke: #ff0000"/>
     <use xlink:href="#m571c73d62b" x="488.55453" y="276.076265" style="fill: #ff0000; stroke: #ff0000"/>
     <use xlink:href="#m571c73d62b" x="494.822473" y="276.053518" style="fill: #ff0000; stroke: #ff0000"/>
     <use xlink:href="#m571c73d62b" x="501.115488" y="276.013293" style="fill: #ff0000; stroke: #ff0000"/>
     <use xlink:href="#m571c73d62b" x="507.358359" y="276.069386" style="fill: #ff0000; stroke: #ff0000"/>
     <use xlink:href="#m571c73d62b" x="513.626302" y="276.119887" style="fill: #ff0000; stroke: #ff0000"/>
     <use xlink:href="#m571c73d62b" x="519.869173" y="276.154953" style="fill: #ff0000; stroke: #ff0000"/>
     <use xlink:href="#m571c73d62b" x="526.137116" y="276.224438" style="fill: #ff0000; stroke: #ff0000"/>
     <use xlink:href="#m571c73d62b" x="532.405059" y="276.235787" style="fill: #ff0000; stroke: #ff0000"/>
     <use xlink:href="#m571c73d62b" x="538.673001" y="276.225176" style="fill: #ff0000; stroke: #ff0000"/>
     <use xlink:href="#m571c73d62b" x="544.940944" y="276.263785" style="fill: #ff0000; stroke: #ff0000"/>
     <use xlink:href="#m571c73d62b" x="551.208887" y="276.286841" style="fill: #ff0000; stroke: #ff0000"/>
     <use xlink:href="#m571c73d62b" x="557.47683" y="276.266483" style="fill: #ff0000; stroke: #ff0000"/>
     <use xlink:href="#m571c73d62b" x="563.769845" y="276.292385" style="fill: #ff0000; stroke: #ff0000"/>
     <use xlink:href="#m571c73d62b" x="570.037788" y="276.314818" style="fill: #ff0000; stroke: #ff0000"/>
     <use xlink:href="#m571c73d62b" x="576.305731" y="276.254927" style="fill: #ff0000; stroke: #ff0000"/>
     <use xlink:href="#m571c73d62b" x="582.573673" y="276.19047" style="fill: #ff0000; stroke: #ff0000"/>
     <use xlink:href="#m571c73d62b" x="588.841616" y="276.14069" style="fill: #ff0000; stroke: #ff0000"/>
     <use xlink:href="#m571c73d62b" x="595.109559" y="276.01783" style="fill: #ff0000; stroke: #ff0000"/>
     <use xlink:href="#m571c73d62b" x="601.402574" y="275.955939" style="fill: #ff0000; stroke: #ff0000"/>
     <use xlink:href="#m571c73d62b" x="607.645445" y="276.004911" style="fill: #ff0000; stroke: #ff0000"/>
     <use xlink:href="#m571c73d62b" x="613.913388" y="275.950356" style="fill: #ff0000; stroke: #ff0000"/>
     <use xlink:href="#m571c73d62b" x="620.156259" y="275.901656" style="fill: #ff0000; stroke: #ff0000"/>
     <use xlink:href="#m571c73d62b" x="626.424202" y="275.927924" style="fill: #ff0000; stroke: #ff0000"/>
     <use xlink:href="#m571c73d62b" x="632.692145" y="275.842889" style="fill: #ff0000; stroke: #ff0000"/>
     <use xlink:href="#m571c73d62b" x="638.960088" y="275.737649" style="fill: #ff0000; stroke: #ff0000"/>
     <use xlink:href="#m571c73d62b" x="645.22803" y="275.686546" style="fill: #ff0000; stroke: #ff0000"/>
     <use xlink:href="#m571c73d62b" x="651.495973" y="275.558448" style="fill: #ff0000; stroke: #ff0000"/>
     <use xlink:href="#m571c73d62b" x="657.763916" y="275.355835" style="fill: #ff0000; stroke: #ff0000"/>
     <use xlink:href="#m571c73d62b" x="664.056931" y="275.114023" style="fill: #ff0000; stroke: #ff0000"/>
     <use xlink:href="#m571c73d62b" x="670.324874" y="274.710044" style="fill: #ff0000; stroke: #ff0000"/>
     <use xlink:href="#m571c73d62b" x="676.592817" y="274.114609" style="fill: #ff0000; stroke: #ff0000"/>
     <use xlink:href="#m571c73d62b" x="682.86076" y="273.417757" style="fill: #ff0000; stroke: #ff0000"/>
     <use xlink:href="#m571c73d62b" x="689.128702" y="272.52902" style="fill: #ff0000; stroke: #ff0000"/>
     <use xlink:href="#m571c73d62b" x="695.396645" y="270.999776" style="fill: #ff0000; stroke: #ff0000"/>
     <use xlink:href="#m571c73d62b" x="701.68966" y="267.782423" style="fill: #ff0000; stroke: #ff0000"/>
     <use xlink:href="#m571c73d62b" x="707.932531" y="259.874654" style="fill: #ff0000; stroke: #ff0000"/>
     <use xlink:href="#m571c73d62b" x="714.200474" y="241.091222" style="fill: #ff0000; stroke: #ff0000"/>
     <use xlink:href="#m571c73d62b" x="720.443345" y="202.703129" style="fill: #ff0000; stroke: #ff0000"/>
     <use xlink:href="#m571c73d62b" x="726.711288" y="136.301978" style="fill: #ff0000; stroke: #ff0000"/>
     <use xlink:href="#m571c73d62b" x="732.979231" y="39.26784" style="fill: #ff0000; stroke: #ff0000"/>
    </g>
   </g>
   <g id="patch_8">
    <path d="M 52.9325 390.04 
L 52.9325 14.76 
" style="fill: none; stroke: #000000; stroke-width: 0.8; stroke-linejoin: miter; stroke-linecap: square"/>
   </g>
   <g id="patch_9">
    <path d="M 810.1 390.04 
L 810.1 14.76 
" style="fill: none; stroke: #000000; stroke-width: 0.8; stroke-linejoin: miter; stroke-linecap: square"/>
   </g>
   <g id="patch_10">
    <path d="M 52.9325 390.04 
L 810.1 390.04 
" style="fill: none; stroke: #000000; stroke-width: 0.8; stroke-linejoin: miter; stroke-linecap: square"/>
   </g>
   <g id="patch_11">
    <path d="M 52.9325 14.76 
L 810.1 14.76 
" style="fill: none; stroke: #000000; stroke-width: 0.8; stroke-linejoin: miter; stroke-linecap: square"/>
   </g>
  </g>
 </g>
 <defs>
  <clipPath id="pf79b79df8e">
   <rect x="52.9325" y="14.76" width="757.1675" height="375.28"/>
  </clipPath>
 </defs>
</svg>
